<svg xmlns="http://www.w3.org/2000/svg" viewBox="0 0 326.1 122.41"><defs><style>.cls-1{fill:#fcf4ee;}.cls-2{fill:#e1e7ea;}.cls-3{fill:#351709;}.cls-4{fill:#799bc8;}.cls-5{fill:#ffba00;}.cls-6{fill:#ffcc4d;}</style></defs><g id="Layer_2" data-name="Layer 2"><g id="OBJECTS"><path class="cls-1" d="M130,62A281.46,281.46,0,0,0,77.91,30.16,236.45,236.45,0,0,0,16.36,10.71c-4.94-.84-10.94-1.12-14,2.88C-.25,17.1.91,22.21,3.14,26c4.71,8,13.15,13.06,21.35,17.49l2.31,1.23a73.58,73.58,0,0,0-8.4.11c-3.2.24-7,1.15-8,4.19S12,55.35,14.7,57.41c9,7,19.74,11.37,30.44,15.33-2.47.54-4.94,1.45-6.3,3.52-1.7,2.59-1,6.22,1,8.64s4.82,3.87,7.68,5.07c9.18,3.82,19,5.74,28.78,7.64-1.54.78-3,1.88-3.35,3.53-.64,3.3,3.48,5.29,6.75,6.07C87,109,94.48,110.68,102,112a5.11,5.11,0,0,0-.34,3.5c1,3.48,5.25,4.61,8.83,5.14,32.26,4.76,48.89-10,49.71-16.18C160.51,102.06,161.81,87.11,130,62Z"/><path class="cls-2" d="M130,62a280.43,280.43,0,0,0-49.1-30.42c1.2.79,2.39,1.58,3.57,2.4a82.06,82.06,0,0,1,15,12.8c3.16,3.58,6.35,7.87,7.86,12.45.72,2.21.84,4.81-.86,6.61-1.34,1.43-3.29,1.6-5.13,1.37-4.18-.51-8.27-2.84-11.87-4.3a75.32,75.32,0,0,0-11.28-3.74c1.8,1,3.65,1.9,5.43,2.87,1.43.78,2.82,1.63,4.2,2.51l2.38,1.12c5.28,2.5,10.62,5,15.36,8.49s11.3,9,9.14,15.66a7.45,7.45,0,0,1-.53,1.25,50.24,50.24,0,0,1,6.41,3.61c4.22,2.85,8,6.58,9.66,11.47s1.08,11-3,14.73c-.22.2-.47.36-.7.55,21.8-1.12,33.09-11.92,33.76-17C160.51,102.06,161.81,87.11,130,62Z"/><path class="cls-3" d="M122.74,122.41a85,85,0,0,1-12.38-1c-3.55-.52-8.4-1.69-9.54-5.76a5.68,5.68,0,0,1,0-3.06c-7.25-1.27-14.52-3-21.37-4.58-4.06-1-8.14-3.33-7.41-7.08a5,5,0,0,1,1.89-2.93c-9-1.76-18.18-3.69-26.8-7.28-2.93-1.22-5.94-2.71-8-5.32C37.17,83,36,79,38.11,75.78a8.56,8.56,0,0,1,4.24-3.14c-9.29-3.51-19.57-7.87-28.18-14.54-4-3.08-5.63-6.4-4.63-9.35s3.92-4.42,8.8-4.78c1.56-.12,3.18-.18,4.83-.18C15.13,39.4,7,34.39,2.38,26.45.1,22.56-1.27,17,1.7,13.06c3.43-4.55,10.09-4,14.81-3.21A236.83,236.83,0,0,1,78.28,29.36a280.88,280.88,0,0,1,52.24,32h0c30.45,24,31.08,39.15,30.55,43.22-.35,2.6-2.85,5.9-6.71,8.81S140.18,122.41,122.74,122.41ZM23.51,45.53c-1.73,0-3.42.06-5,.18-2.83.21-6.39,1-7.27,3.6-1,2.95,2.1,5.91,4,7.41,9.19,7.12,20.41,11.58,30.21,15.2l2.8,1-2.92.64c-3,.65-4.76,1.62-5.76,3.14-1.53,2.33-.7,5.6.92,7.62,1.83,2.3,4.61,3.66,7.33,4.8,9.14,3.81,19,5.73,28.61,7.59l2.52.49-2.29,1.15c-1.73.87-2.68,1.82-2.89,2.92-.49,2.54,3,4.31,6.09,5,7.15,1.69,14.75,3.45,22.29,4.74l1.11.19-.46,1a4.2,4.2,0,0,0-.29,2.91c.66,2.35,3.23,3.78,8.1,4.5,24.46,3.61,38-4.23,42.69-7.77,4.12-3.11,5.82-6.07,6-7.65.5-3.84-.17-18.17-29.9-41.62h0A278.27,278.27,0,0,0,77.53,31,234.93,234.93,0,0,0,16.21,11.57C9.44,10.42,5.27,11.23,3.1,14.11c-2.46,3.26-1.2,8.06.79,11.46,4.6,7.85,12.9,12.78,21,17.16.44.24.87.47,1.31.69l4.39,2.34-3.83-.16C25.67,45.56,24.58,45.53,23.51,45.53Z"/><path class="cls-3" d="M52.44,53.48c-5-2.08-10-4-15.09-5.94a153.85,153.85,0,0,1-14.93-6.46c-1.34-.7-2.71-1.33-4.08-2s-2.85-1.4-4.29-2.07a.18.18,0,0,0-.19.31c2.27,1.58,4.59,3.15,7,4.55a64.5,64.5,0,0,0,7.44,3.6,156.65,156.65,0,0,0,15.38,5.13c3,.91,5.88,1.81,8.75,2.94.07,0,.09-.07,0-.1Z"/><path class="cls-3" d="M76,79.09a160.54,160.54,0,0,1-17.8-3.54C52.44,74,46.74,72.2,41.1,70.17c-3.21-1.16-6.43-2.24-9.67-3.28a.24.24,0,0,0-.19.44,57.66,57.66,0,0,0,8.14,3.85c2.87,1.06,5.79,2,8.74,2.88A165.79,165.79,0,0,0,66,78c3.32.56,6.66.95,10,1.25.09,0,.11-.16,0-.17Z"/><path class="cls-3" d="M104,99.43C92.94,98.9,82,97.17,71,95.52c-1.53-.23-3.06-.47-4.58-.74-.76-.14-1.53-.24-2.29-.37A21.29,21.29,0,0,0,61.84,94c-.41,0-.41.53-.09.66a16.75,16.75,0,0,0,2,.56c.67.16,1.33.37,2,.53,1.38.32,2.76.64,4.14.94,2.74.6,5.5,1,8.26,1.44a143.47,143.47,0,0,0,16.42,1.35q4.74.12,9.48.09a.09.09,0,1,0,0-.18Z"/><path class="cls-3" d="M129.85,110.44a97.29,97.29,0,0,1-31.12-.25l-4.4-.73c-1.46-.24-2.91-.6-4.38-.82-.27,0-.52.36-.21.5,1.17.51,2.4.86,3.61,1.25s2.61.77,3.94,1.06a68.44,68.44,0,0,0,7.94,1.17,72.58,72.58,0,0,0,7.94.3,75.3,75.3,0,0,0,7.93-.69,74.77,74.77,0,0,0,8.79-1.65c.1,0,.06-.16,0-.14Z"/><path class="cls-4" d="M85.14,75.51a13.07,13.07,0,0,0-4.79.07,7.7,7.7,0,0,0-4.45,2.33c-1.2,1.49-.42,3.25,1,4.18a24.34,24.34,0,0,0,4.85,2.19,20.38,20.38,0,0,0,6.08,1.14c.22,0,.28-.35.06-.39a33.89,33.89,0,0,1-5.6-1.54,20.9,20.9,0,0,1-2.73-1.23,7.64,7.64,0,0,1-2.32-1.66,1.38,1.38,0,0,1,.23-2.12,14.57,14.57,0,0,1,2.15-1.59,9.15,9.15,0,0,1,5.44-1.22c.1,0,.12-.15,0-.16Z"/><path class="cls-4" d="M78.17,69.85a6.35,6.35,0,0,0-2.4.45,3.2,3.2,0,0,0-1.71,1.86,3.08,3.08,0,0,0,.57,2.74,4.64,4.64,0,0,0,2.58,1.67,5.8,5.8,0,0,0,2.73,0l.89-.19a.16.16,0,0,0,0-.3c-.57-.08-1.12-.24-1.68-.37a16.21,16.21,0,0,1-1.69-.46,3.35,3.35,0,0,1-1.94-1.75,2,2,0,0,1,.32-2.17A4,4,0,0,1,78.2,70c.11,0,.08-.2,0-.19Z"/><path class="cls-4" d="M92.27,82.31a12.12,12.12,0,0,1-2.62.32,3.63,3.63,0,0,0-2.08.94,2.6,2.6,0,0,0-.78,2A2.8,2.8,0,0,0,88,87.49a11.78,11.78,0,0,0,4.56,1.94,15.4,15.4,0,0,0,2.51.39,8.24,8.24,0,0,0,2.48-.07.2.2,0,0,0,0-.38c-.7-.14-1.42-.12-2.12-.25a17.44,17.44,0,0,1-2-.48,15.19,15.19,0,0,1-3.83-1.84,2.89,2.89,0,0,1-1.2-1.12,1.18,1.18,0,0,1,.45-1.27,4.89,4.89,0,0,1,1.55-1c.67-.29,1.35-.57,2-.91.12-.06,0-.27-.09-.22Z"/><path class="cls-3" d="M108.77,91.66c-1.64.47-3.42.79-4.81,1.86a4.78,4.78,0,0,0-1.87,4.21,4.24,4.24,0,0,0,3.17,3.5,20.06,20.06,0,0,0,5.91.89,24.27,24.27,0,0,0,6.68-.77.16.16,0,0,0,0-.31,30.16,30.16,0,0,1-6.51-.19,27.41,27.41,0,0,1-3.24-.68,17.19,17.19,0,0,1-2.72-.86,2.34,2.34,0,0,1-1.44-1.65,3.48,3.48,0,0,1,.45-2.23A8.62,8.62,0,0,1,108.86,92c.19-.08.12-.38-.09-.32Z"/><path class="cls-3" d="M114.18,101.6c-.46-.2-.77.27-.91.65a2,2,0,0,0,.1,1.45,3.91,3.91,0,0,0,2.32,1.79,13.36,13.36,0,0,0,3.38.69,9.94,9.94,0,0,0,3.44,0,.17.17,0,0,0,0-.33c-.94-.2-1.93-.21-2.88-.42a16.9,16.9,0,0,1-2.85-1,4.77,4.77,0,0,1-2.08-1.2,2,2,0,0,1-.34-.94c0-.19.07-.6-.18-.7Z"/><path class="cls-1" d="M196.12,62a281.87,281.87,0,0,1,52.07-31.84,236.33,236.33,0,0,1,61.55-19.45c4.94-.84,10.94-1.12,14,2.88,2.65,3.51,1.49,8.62-.74,12.42-4.71,8-13.15,13.06-21.35,17.49-.77.42-1.55.82-2.32,1.23a73.75,73.75,0,0,1,8.41.11c3.19.24,7,1.15,8,4.19s-1.66,6.32-4.33,8.38c-9,7-19.73,11.37-30.44,15.33,2.48.54,4.94,1.45,6.3,3.52,1.71,2.59,1,6.22-1,8.64s-4.81,3.87-7.67,5.07c-9.18,3.82-19,5.74-28.79,7.64,1.55.78,3,1.88,3.35,3.53.65,3.3-3.47,5.29-6.74,6.07-7.34,1.74-14.82,3.47-22.34,4.75a5,5,0,0,1,.33,3.5c-1,3.48-5.25,4.61-8.82,5.14-32.26,4.76-48.9-10-49.71-16.18C165.59,102.06,164.29,87.11,196.12,62Z"/><path class="cls-2" d="M196.12,62a280.8,280.8,0,0,1,49.1-30.42c-1.19.79-2.38,1.58-3.56,2.4a82.12,82.12,0,0,0-15,12.8c-3.15,3.58-6.35,7.87-7.85,12.45-.72,2.21-.85,4.81.86,6.61,1.34,1.43,3.28,1.6,5.13,1.37,4.17-.51,8.26-2.84,11.86-4.3A76.08,76.08,0,0,1,248,59.17c-1.79,1-3.65,1.9-5.43,2.87-1.43.78-2.82,1.63-4.19,2.51L236,65.67c-5.28,2.5-10.63,5-15.36,8.49s-11.3,9-9.15,15.66a8.4,8.4,0,0,0,.54,1.25,49.57,49.57,0,0,0-6.41,3.61c-4.22,2.85-8,6.58-9.67,11.47s-1.07,11,3,14.73c.22.2.46.36.7.55-21.8-1.12-33.09-11.92-33.76-17C165.59,102.06,164.29,87.11,196.12,62Z"/><path class="cls-3" d="M171.74,113.35c-3.86-2.91-6.37-6.21-6.71-8.81-.53-4.07.09-19.2,30.55-43.22h0a280.23,280.23,0,0,1,52.24-32A236.71,236.71,0,0,1,309.59,9.85c4.71-.8,11.37-1.34,14.8,3.21,3,3.94,1.6,9.5-.68,13.39-4.65,7.94-12.75,13-20.78,17.34,1.65,0,3.27.06,4.83.18,4.88.36,7.84,2,8.79,4.78s-.63,6.27-4.62,9.35c-8.61,6.67-18.89,11-28.19,14.54A8.54,8.54,0,0,1,288,75.78c2.08,3.17.93,7.23-1,9.67-2.08,2.61-5.09,4.1-8,5.32-8.61,3.59-17.81,5.52-26.79,7.28A4.94,4.94,0,0,1,254,101c.74,3.75-3.34,6.12-7.4,7.08-6.85,1.62-14.12,3.31-21.37,4.58a5.78,5.78,0,0,1,0,3.06c-1.15,4.07-6,5.24-9.54,5.76a85,85,0,0,1-12.39,1C185.92,122.41,175.73,116.37,171.74,113.35ZM299.33,45.6l-3.83.16,4.39-2.34c.44-.22.87-.45,1.3-.69,8.11-4.38,16.42-9.31,21-17.16,2-3.4,3.25-8.2.8-11.46-2.18-2.88-6.34-3.69-13.12-2.54A235.17,235.17,0,0,0,248.56,31a278.51,278.51,0,0,0-51.89,31.74h0c-29.73,23.45-30.41,37.78-29.9,41.62.2,1.58,1.91,4.54,6,7.65,4.69,3.54,18.24,11.38,42.69,7.77,4.87-.72,7.45-2.15,8.11-4.5a4.2,4.2,0,0,0-.29-2.91l-.47-1,1.12-.19c7.53-1.29,15.14-3,22.29-4.74,3.11-.74,6.58-2.51,6.09-5-.22-1.1-1.16-2-2.89-2.92l-2.3-1.15,2.53-.49c9.57-1.86,19.47-3.78,28.61-7.59,2.72-1.14,5.49-2.5,7.33-4.8,1.61-2,2.44-5.29.91-7.62-1-1.52-2.77-2.49-5.75-3.14L277.85,73l2.8-1c9.8-3.62,21-8.08,30.21-15.2,1.94-1.5,5-4.46,4-7.41-.89-2.6-4.44-3.39-7.27-3.6-1.63-.12-3.31-.18-5.05-.18C301.51,45.53,300.43,45.56,299.33,45.6Z"/><path class="cls-3" d="M273.66,53.48c5-2.08,10-4,15.08-5.94a151.75,151.75,0,0,0,14.93-6.46c1.34-.7,2.72-1.33,4.09-2s2.85-1.4,4.29-2.07a.18.18,0,0,1,.18.31c-2.27,1.58-4.59,3.15-7,4.55a63.86,63.86,0,0,1-7.45,3.6,156.46,156.46,0,0,1-15.37,5.13c-2.95.91-5.88,1.81-8.75,2.94-.07,0-.1-.07,0-.1Z"/><path class="cls-3" d="M250.07,79.09a161,161,0,0,0,17.8-3.54C273.66,74,279.36,72.2,285,70.17c3.21-1.16,6.42-2.24,9.67-3.28a.24.24,0,0,1,.19.44,58.19,58.19,0,0,1-8.14,3.85c-2.88,1.06-5.79,2-8.74,2.88a165.79,165.79,0,0,1-17.88,4c-3.32.56-6.66.95-10,1.25-.09,0-.12-.16,0-.17Z"/><path class="cls-3" d="M222.05,99.43c11.11-.53,22.1-2.26,33.08-3.91,1.52-.23,3.05-.47,4.57-.74.77-.14,1.53-.24,2.3-.37a21.29,21.29,0,0,1,2.26-.37c.4,0,.41.53.08.66a17.14,17.14,0,0,1-2,.56c-.67.16-1.33.37-2,.53-1.38.32-2.76.64-4.14.94-2.74.6-5.5,1-8.27,1.44a143.11,143.11,0,0,1-16.41,1.35c-3.17.08-6.32.11-9.49.09-.11,0-.11-.17,0-.18Z"/><path class="cls-3" d="M196.24,110.44a97.35,97.35,0,0,0,31.13-.25l4.39-.73c1.47-.24,2.91-.6,4.38-.82.28,0,.52.36.21.5a37.33,37.33,0,0,1-3.6,1.25c-1.3.42-2.61.77-3.94,1.06a68.93,68.93,0,0,1-7.95,1.17,72.4,72.4,0,0,1-7.93.3,85.84,85.84,0,0,1-16.73-2.34c-.09,0,0-.16,0-.14Z"/><path class="cls-4" d="M241,75.51a13.07,13.07,0,0,1,4.79.07,7.73,7.73,0,0,1,4.45,2.33c1.19,1.49.42,3.25-1,4.18a24.87,24.87,0,0,1-4.85,2.19,20.38,20.38,0,0,1-6.09,1.14c-.21,0-.27-.35-.05-.39a34.16,34.16,0,0,0,5.6-1.54,20.19,20.19,0,0,0,2.72-1.23,7.41,7.41,0,0,0,2.32-1.66,1.37,1.37,0,0,0-.22-2.12,15.11,15.11,0,0,0-2.15-1.59A9.2,9.2,0,0,0,241,75.67c-.09,0-.11-.15,0-.16Z"/><path class="cls-4" d="M247.92,69.85a6.32,6.32,0,0,1,2.4.45A3.18,3.18,0,0,1,252,72.16a3.09,3.09,0,0,1-.58,2.74,4.61,4.61,0,0,1-2.57,1.67,6,6,0,0,1-1.8.14,5.81,5.81,0,0,1-.93-.15l-.9-.19c-.14,0-.15-.28,0-.3.58-.08,1.13-.24,1.69-.37a16.21,16.21,0,0,0,1.69-.46,3.31,3.31,0,0,0,1.93-1.75,2,2,0,0,0-.31-2.17A4,4,0,0,0,247.9,70c-.11,0-.08-.2,0-.19Z"/><path class="cls-4" d="M233.83,82.31a12.12,12.12,0,0,0,2.62.32,3.65,3.65,0,0,1,2.08.94,2.64,2.64,0,0,1,.78,2,2.8,2.8,0,0,1-1.19,1.89,11.89,11.89,0,0,1-4.57,1.94,15.07,15.07,0,0,1-2.51.39,8.17,8.17,0,0,1-2.47-.07.2.2,0,0,1,0-.38c.69-.14,1.42-.12,2.12-.25a17.28,17.28,0,0,0,2-.48,15.09,15.09,0,0,0,3.84-1.84,2.8,2.8,0,0,0,1.19-1.12c.21-.5-.11-.93-.45-1.27a4.73,4.73,0,0,0-1.54-1c-.67-.29-1.35-.57-2-.91-.12-.06,0-.27.09-.22Z"/><path class="cls-4" d="M217.33,91.66c1.64.47,3.42.79,4.8,1.86A4.79,4.79,0,0,1,224,97.73a4.25,4.25,0,0,1-3.17,3.5,20.08,20.08,0,0,1-5.92.89,24.25,24.25,0,0,1-6.67-.77.16.16,0,0,1,0-.31,30.26,30.26,0,0,0,6.52-.19,27.68,27.68,0,0,0,3.23-.68,16.87,16.87,0,0,0,2.72-.86,2.36,2.36,0,0,0,1.45-1.65,3.48,3.48,0,0,0-.46-2.23A8.6,8.6,0,0,0,217.24,92c-.19-.08-.12-.38.09-.32Z"/><path class="cls-4" d="M211.91,101.6c.47-.2.77.27.91.65a1.87,1.87,0,0,1-.1,1.45,3.86,3.86,0,0,1-2.31,1.79,13.36,13.36,0,0,1-3.38.69,10,10,0,0,1-3.45,0,.18.18,0,0,1,0-.33c.95-.2,1.93-.21,2.88-.42a17,17,0,0,0,2.86-1,4.77,4.77,0,0,0,2.08-1.2,2.09,2.09,0,0,0,.34-.94c0-.19-.07-.6.17-.7Z"/><path class="cls-5" d="M169.31.89c-25.19.4-45.5,8.64-45.34,18.41s20.71,17.35,45.91,17,45.49-8.64,45.34-18.41S194.51.49,169.31.89Zm.49,30.8c-18.69.29-33.94-5.34-34.06-12.58S150.69,5.75,169.39,5.45,203.33,10.79,203.44,18,188.5,31.39,169.8,31.69Z"/><path class="cls-5" d="M169.31.89c-25.19.4-45.5,8.64-45.34,18.41s20.71,17.35,45.91,17,45.49-8.64,45.34-18.41S194.51.49,169.31.89Zm.49,30.8c-18.69.29-33.94-5.34-34.06-12.58S150.69,5.75,169.39,5.45,203.33,10.79,203.44,18,188.5,31.39,169.8,31.69Z"/><path class="cls-3" d="M146.75,35.12c-14.13-2.93-23.54-8.78-23.66-15.81C123,14.2,127.88,9.39,136.8,5.77,145.47,2.25,157,.21,169.3,0h0c26.07-.42,46.63,7.41,46.79,17.81.09,5.11-4.78,9.92-13.71,13.54-8.66,3.52-20.2,5.56-32.49,5.75A106.53,106.53,0,0,1,146.75,35.12ZM169.33,1.76h0c-12.08.2-23.4,2.2-31.87,5.63-8.08,3.28-12.68,7.62-12.62,11.89.15,9.11,20.76,16.48,45,16.1,12.08-.2,23.4-2.2,31.87-5.63,8.08-3.29,12.68-7.62,12.61-11.89C214.2,8.75,193.58,1.38,169.33,1.76ZM152.69,31.07a51.49,51.49,0,0,1-7.19-2c-6.79-2.51-10.57-6-10.63-9.93s3.6-7.53,10.31-10.26c6.45-2.61,15-4.14,24.19-4.28s17.78,1.1,24.32,3.51c6.79,2.51,10.57,6,10.63,9.93s-3.6,7.53-10.31,10.26c-6.46,2.61-15,4.14-24.19,4.28A79.21,79.21,0,0,1,152.69,31.07ZM186.13,7.79A76.72,76.72,0,0,0,169.4,6.33c-8.94.14-17.3,1.62-23.56,4.16-5.91,2.39-9.27,5.53-9.22,8.6s3.51,6.11,9.49,8.32c6.33,2.33,14.74,3.54,23.68,3.4s17.3-1.62,23.56-4.16c5.91-2.4,9.27-5.53,9.22-8.6s-3.51-6.11-9.49-8.32A49.45,49.45,0,0,0,186.13,7.79Z"/><path class="cls-6" d="M134.92,12.66c-1,.3-2,.49-3,.8a11.07,11.07,0,0,0-2.87,1c-2.19,1.41-3.19,4.68-1.63,6.92a9,9,0,0,0,2.43,2.12c.82.55,1.67,1.09,2.51,1.61a13.81,13.81,0,0,0,5.89,2.21.48.48,0,0,0,.31-.9A31.8,31.8,0,0,1,134,23.79a7.9,7.9,0,0,1-1.78-1.73,5.94,5.94,0,0,1-.61-1s-.08-.31-.09-.34c.08.32,0-.24,0-.25,0-.37-.05-.75-.1-1.13,0-.17,0-.33-.05-.5a1.5,1.5,0,0,1,0-.3c0,.24,0,.28,0,.11a9.43,9.43,0,0,0,.25-1.08c0-.19.08-.38.13-.57-.12.45.12-.39.17-.55-.12.36.2-.57.08-.3.08-.18.19-.35.28-.52a2.9,2.9,0,0,1,.74-.93,10.12,10.12,0,0,1,2.22-1.51c.29-.15.05-.59-.24-.5Z"/><path class="cls-6" d="M204.9,11.68a6.29,6.29,0,0,1,1.15,3.17,19.32,19.32,0,0,1,.11,3.26c-.16,1.14-.36,2.33-.61,3.46a7,7,0,0,1-2,2.95.31.31,0,0,0,.33.51,9.15,9.15,0,0,0,3.52-2.23,6.46,6.46,0,0,0,1.49-1.8,6.26,6.26,0,0,0,.64-2.65,6.47,6.47,0,0,0-1.15-4.3A11.32,11.32,0,0,0,207,12.43a12.11,12.11,0,0,0-1.71-1.14.27.27,0,0,0-.35.39Z"/></g></g></svg>