<svg xmlns="http://www.w3.org/2000/svg" viewBox="0 0 64.23 111.24"><defs><style>.cls-1{fill:#22386a;}.cls-2{fill:#1d79bf;}.cls-3{fill:#17abe1;}.cls-4{fill:#19171c;}.cls-5{fill:#fff;}</style></defs><g id="Layer_2" data-name="Layer 2"><g id="Слой_5" data-name="Слой 5"><path class="cls-1" d="M17.72,89.86A13.16,13.16,0,0,0,6.9,106.17a1.79,1.79,0,0,1-1.74,2.23H3.67A16.88,16.88,0,0,1,29.46,89.16c-.84,1-1.69,1.86-2.53,2.79a13.12,13.12,0,0,0-9.21-2.09Z"/><path class="cls-1" d="M46.51,89.86a13.16,13.16,0,0,1,10.82,16.31,1.79,1.79,0,0,0,1.74,2.23h1.49A16.87,16.87,0,0,0,34.78,89.16c.83,1,1.68,1.86,2.53,2.79a13.09,13.09,0,0,1,9.2-2.09Z"/><path class="cls-1" d="M19.61,72.51A13.14,13.14,0,0,0,4.75,85.24a1.79,1.79,0,0,1-2.29,1.67L1,86.51A16.87,16.87,0,0,1,31.09,75C30,75.71,29,76.36,27.9,77a13.08,13.08,0,0,0-8.29-4.51Z"/><path class="cls-1" d="M44.68,72.46A13.16,13.16,0,0,1,59.42,85.34,1.78,1.78,0,0,0,61.68,87l1.43-.39A16.87,16.87,0,0,0,33.18,74.86c1,.7,2.12,1.35,3.17,2a13.13,13.13,0,0,1,8.33-4.42Z"/><path class="cls-1" d="M26.93,61.54c-10,6.71-23.07-2.63-20-14.23A1.8,1.8,0,0,0,5,45.08H1.12a1.13,1.13,0,0,0,0,2.25H3.07c-.11.5-.19,1-.25,1.49H1.12a1.13,1.13,0,0,0,0,2.25H2.71a14.72,14.72,0,0,0,.1,1.5H1.12A1.12,1.12,0,0,0,0,53.69H0a1.13,1.13,0,0,0,1.12,1.13h2.1C6,65.35,19.07,71.77,29.46,64.32c-.84-.95-1.69-1.86-2.53-2.78Z"/><path class="cls-1" d="M63.11,51.07a1.13,1.13,0,0,0,0-2.25H61.39a14.88,14.88,0,0,0-.23-1.49h2a1.13,1.13,0,0,0,0-2.25H60.56c-.81,0-3.89-.29-3.23,2.23,3.06,11.68-10.08,20.88-20,14.23-.85.92-1.7,1.83-2.53,2.78A16.9,16.9,0,0,0,61,54.82h2.15a1.13,1.13,0,0,0,1.12-1.13h0a1.12,1.12,0,0,0-1.12-1.12H61.37c.05-.51.09-1,.1-1.5Z"/><path class="cls-2" d="M33.52,52.07H30A16.45,16.45,0,0,0,13.6,68.52V81.89c-.3,20,13.3,29.35,18.35,29.35,5.65,0,18-9.3,18-29.35V68.52A16.45,16.45,0,0,0,33.52,52.07Z"/><path class="cls-3" d="M32,54.47a13,13,0,1,0-13-13,13,13,0,0,0,13,13Z"/><path class="cls-4" d="M44.73,39.22c-2.53-11.36-13-10.7-13-10.7.5,13.52,13,10.7,13,10.7Z"/><path class="cls-4" d="M19.17,39.22c2.54-11.36,13-10.7,13-10.7-.5,13.52-13,10.7-13,10.7Z"/><path class="cls-3" d="M39.15,11.34c1.07-3.74-1.87-15-1.83-10.16,0,3.58-3.57,9.66-5.43,12.55-1.85-2.89-5.44-9-5.42-12.55,0-4.81-2.9,6.42-1.83,10.16a9.57,9.57,0,0,1-.24,6.42L30.56,16V39.47h3.21V16.18l5.62,1.58a9.57,9.57,0,0,1-.24-6.42Z"/><path class="cls-3" d="M42.82,78.88C42.82,89,38.09,97.2,32.26,97.2S21.69,89,21.69,78.88s4.73-18.33,10.57-18.33,10.56,8.21,10.56,18.33Z"/><polygon class="cls-1" points="32.35 111.24 31.55 111.24 31.55 54.47 32.35 54.47 32.35 111.24 32.35 111.24"/><path class="cls-5" d="M25.5,34a1.1,1.1,0,1,1-1.1-1.1A1.1,1.1,0,0,1,25.5,34Z"/><path class="cls-5" d="M40.75,34a1.1,1.1,0,0,1-2.2,0,1.1,1.1,0,0,1,2.2,0Z"/></g></g></svg>