<svg xmlns="http://www.w3.org/2000/svg" viewBox="0 0 137.46 100.23"><defs><style>.cls-1{fill:#bf4e27;}.cls-2{fill:#aa1e24;}.cls-3{fill:#19171c;}.cls-4{fill:#f79532;}.cls-5{fill:#fff;}.cls-6{fill:#f26537;}</style></defs><g id="Layer_2" data-name="Layer 2"><g id="Слой_5" data-name="Слой 5"><path class="cls-1" d="M134.06,40.05a11.49,11.49,0,0,0-8.18-3.39h-18.8A21.35,21.35,0,0,0,85.73,58V69.4A7.68,7.68,0,0,1,78,77.08H47.74a5.94,5.94,0,0,1-5.94-5.91c-.08-20.71-.19-24.16-.22-29.35l-22.34.08S19,62.62,18.85,76.48c.7.41,16.63,18.08,19.44,21.43l48.43,2.32a22.15,22.15,0,0,0,22.16-22.15V64.74a4.93,4.93,0,0,1,4.93-4.93h12.07a11.59,11.59,0,0,0,11.58-11.43v-.15a11.53,11.53,0,0,0-3.4-8.18Z"/><path class="cls-1" d="M112.47,40.47A7.53,7.53,0,1,0,120,33a7.53,7.53,0,0,0-7.52,7.52Z"/><path class="cls-1" d="M99.74,40.47A7.53,7.53,0,1,0,107.26,33a7.53,7.53,0,0,0-7.52,7.52Z"/><path class="cls-1" d="M89.8,44.91a7.53,7.53,0,1,0,7.53-7.52,7.53,7.53,0,0,0-7.53,7.52Z"/><path class="cls-1" d="M84,53.11a7.52,7.52,0,1,0,7.52-7.52A7.51,7.51,0,0,0,84,53.11Z"/><path class="cls-1" d="M79.49,78.16A7.53,7.53,0,1,0,87,70.64a7.53,7.53,0,0,0-7.52,7.52Z"/><path class="cls-1" d="M29.24,70.64a7.52,7.52,0,1,0,7.52-7.52,7.52,7.52,0,0,0-7.52,7.52Z"/><path class="cls-1" d="M33.17,53.65h8.3a7.51,7.51,0,0,0,3.38-6.27c0-4.16-1.71-8.13-7.53-8.13-4.15,0-7.52,4-7.52,8.13a7.5,7.5,0,0,0,3.37,6.27Z"/><path class="cls-1" d="M52.77,81.15a7.53,7.53,0,1,0,7.52-7.52,7.53,7.53,0,0,0-7.52,7.52Z"/><path class="cls-2" d="M29.24,59.35a7.52,7.52,0,1,0,7.52-7.52,7.53,7.53,0,0,0-7.52,7.52Z"/><path class="cls-2" d="M40,81.15a7.53,7.53,0,1,0,7.52-7.52A7.53,7.53,0,0,0,40,81.15Z"/><path class="cls-2" d="M65.5,81.15A7.53,7.53,0,1,0,73,73.63a7.53,7.53,0,0,0-7.53,7.52Z"/><path class="cls-2" d="M82.28,64.43a7.53,7.53,0,1,0,7.52-7.52,7.52,7.52,0,0,0-7.52,7.52Z"/><path class="cls-3" d="M26.31,15.37c-4-5.83-9.76-10.46-15-12.08A17.27,17.27,0,0,0,.66,3.16s0,.1,0,.16C.42,2.3.2,1.27,0,.24A5.94,5.94,0,0,1,.27.81,19.09,19.09,0,0,1,12,1c5.85,1.79,11.94,6.65,16.29,13l-2,1.33Z"/><path class="cls-3" d="M33.33,15.37c4-5.83,9.77-10.46,15-12.08A17.27,17.27,0,0,1,59,3.16s0,.1,0,.16c.23-1,.45-2,.65-3.08a5.94,5.94,0,0,0-.27.57A19.09,19.09,0,0,0,47.68,1C41.83,2.83,35.74,7.69,31.39,14l1.94,1.33Z"/><polygon class="cls-2" points="21.76 51.98 36.76 51.98 36.76 66.88 21.76 66.88 21.76 51.98 21.76 51.98"/><polygon class="cls-2" points="55.09 88.68 40.05 88.68 40.05 81.6 55.09 81.6 55.09 88.68 55.09 88.68"/><polygon class="cls-2" points="80.55 88.86 65.51 88.86 65.51 81.4 80.55 81.4 80.55 88.86 80.55 88.86"/><polygon class="cls-2" points="97.91 71.95 89.81 71.95 89.81 56.91 97.91 56.91 97.91 71.95 97.91 71.95"/><path class="cls-4" d="M109.77,48.38c-6.55,0-12,4.29-12,10.84l.16,14.34c0,6.55-5.32,15.33-11.87,15.33l-39.18-.22A17.15,17.15,0,0,1,29.8,71.51V41.31H18.71s0,25.81,0,34.42c-.59,12.09,7.59,24.88,25.07,24.5H86.72a22.16,22.16,0,0,0,22.16-22.16V64.74a4.93,4.93,0,0,1,4.93-4.93h12.07a11.59,11.59,0,0,0,11.58-11.43Z"/><path class="cls-2" d="M48.32,27.06A18.52,18.52,0,1,1,29.8,8.54,18.52,18.52,0,0,1,48.32,27.06Z"/><path class="cls-3" d="M28.59,23.9a5.68,5.68,0,1,1-5.68-5.68,5.68,5.68,0,0,1,5.68,5.68Z"/><path class="cls-5" d="M22.35,21.92a1.43,1.43,0,1,1-1.43-1.43,1.43,1.43,0,0,1,1.43,1.43Z"/><path class="cls-3" d="M43.08,23.9a5.69,5.69,0,1,1-5.68-5.68,5.69,5.69,0,0,1,5.68,5.68Z"/><path class="cls-5" d="M36.84,21.92a1.43,1.43,0,1,1-1.43-1.43,1.43,1.43,0,0,1,1.43,1.43Z"/><path class="cls-6" d="M29.86,36.79a8.37,8.37,0,0,1-5.72-2.74l1.45-1.5c3,2.87,5.57,2.88,8.37,0L35.45,34a7.89,7.89,0,0,1-5.59,2.76Z"/></g></g></svg>