<svg xmlns="http://www.w3.org/2000/svg" viewBox="0 0 77.21 108.18"><defs><style>.cls-1{fill:#ef509d;}.cls-2{fill:#f49ec4;}.cls-3{fill:#f08453;}.cls-4{fill:#4b011c;}.cls-5{fill:#bfddf4;}.cls-6{fill:#171b1f;}.cls-7{fill:#cfd1d0;}</style></defs><g id="Layer_2" data-name="Layer 2"><g id="Слой_5" data-name="Слой 5"><path class="cls-1" d="M57.08,6.69v0C57.4,3,55.79,0,52.51,0s-5,3.06-4.56,6.67v0Z"/><path class="cls-2" d="M60,13.35v0c.51-6-2.08-10.76-7.36-10.75s-8.09,4.93-7.35,10.75v0Z"/><path class="cls-1" d="M62.81,21.65v0c.67-8.46-2.62-15.38-10.48-15.31S41,13.31,41.85,21.61v0Z"/><path class="cls-2" d="M66.83,32.84v-.05c.44-11.74-4.11-21.35-14.6-21.33s-15.35,9.59-14.6,21.33v.05Z"/><path class="cls-1" d="M69,44.21v-.06c.86-13.76-4.25-25-17-24.85S34.22,30.39,35,44.15v.06Z"/><path class="cls-2" d="M72.85,58.19a.13.13,0,0,1,0-.06c2.44-14.84-5.78-26.74-20.49-26.71S29.24,43.21,31.87,58.13a.13.13,0,0,1,0,.06Z"/><path class="cls-3" d="M64.53,100.21H29.71A12.68,12.68,0,0,1,17,87.53h0A12.68,12.68,0,0,1,29.71,74.85H64.53A12.68,12.68,0,0,1,77.21,87.53h0a12.68,12.68,0,0,1-12.68,12.68Z"/><path class="cls-1" d="M75.83,81.57a.19.19,0,0,1,0-.08C80.24,62.63,69.44,47.24,52,47.2S25,62.63,28.08,81.49c0,0,0,.05,0,.08Z"/><path class="cls-3" d="M42,82.59A17.62,17.62,0,1,1,24.34,65,17.62,17.62,0,0,1,42,82.59Z"/><path class="cls-4" d="M34.5,78.9a10.77,10.77,0,0,1-20.1,7.65l-.78.3A11.61,11.61,0,0,0,35.28,78.6l-.78.3Z"/><path class="cls-3" d="M20.25,68.68A10.13,10.13,0,1,1,10.13,58.55,10.12,10.12,0,0,1,20.25,68.68Z"/><path class="cls-5" d="M18.79,68.68A8.67,8.67,0,1,1,10.13,60a8.66,8.66,0,0,1,8.66,8.67Z"/><path class="cls-6" d="M13.48,68.68a3.36,3.36,0,1,1-3.35-3.36,3.35,3.35,0,0,1,3.35,3.36Z"/><path class="cls-7" d="M12.75,67.21a1.16,1.16,0,1,1-1.16-1.16,1.16,1.16,0,0,1,1.16,1.16Z"/><path class="cls-3" d="M39.27,68.76A10.13,10.13,0,1,1,29.15,58.63,10.12,10.12,0,0,1,39.27,68.76Z"/><path class="cls-5" d="M37.81,68.76a8.67,8.67,0,1,1-8.66-8.67,8.66,8.66,0,0,1,8.66,8.67Z"/><path class="cls-6" d="M32.5,68.76a3.36,3.36,0,1,1-3.35-3.36,3.35,3.35,0,0,1,3.35,3.36Z"/><path class="cls-7" d="M31.77,67.29a1.16,1.16,0,1,1-1.16-1.16,1.16,1.16,0,0,1,1.16,1.16Z"/><path class="cls-3" d="M41.49,108.18h0A2.48,2.48,0,0,1,39,105.71V99.37a2.47,2.47,0,0,1,2.47-2.47h0A2.46,2.46,0,0,1,44,99.37v6.34a2.47,2.47,0,0,1-2.47,2.47Z"/><path class="cls-3" d="M51.11,108.14h0a2.47,2.47,0,0,1-2.47-2.47V99.33a2.46,2.46,0,0,1,2.47-2.47h0a2.47,2.47,0,0,1,2.47,2.47v6.34a2.48,2.48,0,0,1-2.47,2.47Z"/><path class="cls-3" d="M61,108.1h0a2.48,2.48,0,0,1-2.47-2.47V99.29A2.47,2.47,0,0,1,61,96.82h0a2.46,2.46,0,0,1,2.47,2.47v6.34A2.47,2.47,0,0,1,61,108.1Z"/><path class="cls-3" d="M28.88,108.14h0a2.47,2.47,0,0,1-2.47-2.47V99.33a2.46,2.46,0,0,1,2.47-2.47h0a2.47,2.47,0,0,1,2.47,2.47v6.34a2.48,2.48,0,0,1-2.47,2.47Z"/></g></g></svg>