<svg xmlns="http://www.w3.org/2000/svg" viewBox="0 0 118.21 100.47"><defs><style>.cls-1{fill:#fab52d;}.cls-2{fill:#85c555;}.cls-3{fill:#f79532;}.cls-4{fill:#64696d;}.cls-5{fill:#fff;}.cls-6{fill:#be2638;}</style></defs><g id="Layer_2" data-name="Layer 2"><g id="Слой_5" data-name="Слой 5"><path class="cls-1" d="M96.12,7.12A10.36,10.36,0,0,0,89.5,2.51a3.27,3.27,0,1,0,0,1.4A9.48,9.48,0,0,1,95,7.9c1.82,2.6,2.8,6.73,2.55,10.79l1.35.08c.27-4.42-.77-8.77-2.79-11.65Z"/><path class="cls-1" d="M103.83,7.12a10.34,10.34,0,0,1,6.61-4.61,3.27,3.27,0,1,1,0,1.4,9.42,9.42,0,0,0-5.47,4c-1.83,2.6-2.81,6.73-2.56,10.79l-1.35.08c-.27-4.42.77-8.77,2.8-11.65Z"/><path class="cls-2" d="M83.82,100.46A25.94,25.94,0,0,1,57.43,74.31c0-4.75-1.93-7.92-9.24-8h0c-3.32,0-6.9,2.17-7,8a26.16,26.16,0,0,1-25.95,26.12H9.49A9.49,9.49,0,0,1,0,91H0a9.49,9.49,0,0,1,9.49-9.49h5.76c3.35,0,7-2.23,7-8.16a25.94,25.94,0,0,1,26-25.95h2.3A25.94,25.94,0,0,1,76.42,73.54c-.09,10.88,13.93,10,13.93,1V31h19V74c0,14.24-11.27,26.19-25.51,26.42Z"/><path class="cls-3" d="M82.47,100.4c-14.35,0-25.33-7.55-25.47-21.85.08-10-3.4-11.78-7.8-11.87-5-.21-7.36,1.64-8.28,13-1,11.8-12,20.69-25.67,20.69H7.59A7.59,7.59,0,0,1,0,92.8H15.25c8.24,0,17.38-4.81,18.1-13.71.54-6.67,1.67-20.56,16.08-20,10.81.07,15.25,8.4,15.16,19.45.11,10.4,8.53,14.52,18.7,14.26,18.83-.46,18.83-9.33,18.83-12.67V36.62h7.59V80.13c0,14.9-12.29,20.27-27.24,20.27Z"/><path class="cls-2" d="M118.21,27.92A18.54,18.54,0,1,1,99.67,9.39a18.53,18.53,0,0,1,18.54,18.53Z"/><path class="cls-4" d="M99,23.75a7.25,7.25,0,1,1-7.25-7.25A7.26,7.26,0,0,1,99,23.75Z"/><path class="cls-5" d="M90.37,21.85a1.45,1.45,0,1,1-1.45-1.45,1.45,1.45,0,0,1,1.45,1.45Z"/><path class="cls-4" d="M115.66,23.75a7.25,7.25,0,1,1-7.25-7.25,7.26,7.26,0,0,1,7.25,7.25Z"/><path class="cls-5" d="M107.07,21.85a1.45,1.45,0,1,1-1.45-1.45,1.45,1.45,0,0,1,1.45,1.45Z"/><path class="cls-6" d="M93.69,33.75s6.2,2.44,11.25,0c0,0-5.16,9.59-11.25,0Z"/></g></g></svg>