<svg xmlns="http://www.w3.org/2000/svg" viewBox="0 0 105.79 91.45"><defs><style>.cls-1{fill:#7c431a;}.cls-2{fill:#cb7027;}.cls-3{fill:#5cc7d1;}.cls-4{fill:#9dd8d6;}.cls-5{fill:#006b3f;}.cls-6{fill:#19171c;}.cls-7{fill:#fff;}</style></defs><g id="Layer_2" data-name="Layer 2"><g id="Слой_5" data-name="Слой 5"><path class="cls-1" d="M22.81,61.52h0a1,1,0,0,1-.28-1.32c2.41-3.77,5.14-8.34,8.72-11.06,1.13-.86,13.66,2.32,16.34,2.79l-.32,1.88c-1.22-.21-13.06-2.92-15.06-3-3.2,2.52-5.79,6.84-8.07,10.42a1,1,0,0,1-1.33.28Z"/><path class="cls-1" d="M83.17,59.85h0a.94.94,0,0,0,.16-1.33C80.6,55,77.5,50.65,73.7,48.24c-1.2-.75-13.41,3.48-16.05,4.18l.49,1.85c1.19-.32,12.76-4,14.75-4.27,3.41,2.24,6.36,6.34,8.93,9.69a1,1,0,0,0,1.35.16Z"/><path class="cls-1" d="M35.59,33.82,34.4,35.35c2.42,1.3,11.64,6.84,12,7l.91-1.68c-.3-.16-10-6-11.7-6.87Z"/><path class="cls-1" d="M70.26,33.19c-1.41.67-12.62,7.34-12.93,7.5l.92,1.68c.34-.18,9.8-5.87,12.16-7.12a3.8,3.8,0,0,1-.15-2.06Z"/><path class="cls-2" d="M52.7,91.45c1.44,0,7.25-16.8,7.25-37.53S56.7,16.38,52.7,16.38s-7.25,16.8-7.25,37.54,5.68,37.53,7.25,37.53Z"/><path class="cls-3" d="M97.24,53.08c-2.71,4-12.62-2.53-24.87-10.65s-21-16.51-19.51-18.76c2.38-3.61,11.56-.74,23.82,7.38s23,18.34,20.56,22Z"/><path class="cls-2" d="M52.52,20.36A10.09,10.09,0,1,0,42.43,10.27,10.09,10.09,0,0,0,52.52,20.36Z"/><path class="cls-4" d="M105.79,22.75c0,4.86-11.82,5.09-26.52,5.37s-26.65-1.65-26.72-4.34c-.09-4.32,9.09-7.18,23.79-7.47s29.39,2,29.45,6.44Z"/><path class="cls-3" d="M8.7,53.08c2.71,4,12.61-2.53,24.87-10.65s21-16.51,19.51-18.76c-2.38-3.61-11.57-.74-23.82,7.38s-23,18.34-20.56,22Z"/><path class="cls-4" d="M0,22.75c-.06,4.86,11.82,5.09,26.52,5.37s26.65-1.65,26.71-4.34c.1-4.32-9.09-7.18-23.79-7.47S.05,18.29,0,22.75Z"/><path class="cls-5" d="M52,5a5,5,0,1,1-5-5,5,5,0,0,1,5,5Z"/><path class="cls-5" d="M63.23,4.81A4.82,4.82,0,1,1,58.41,0a4.82,4.82,0,0,1,4.82,4.81Z"/><path class="cls-6" d="M44.48,4.78a2.14,2.14,0,1,0,2.14-2.14,2.13,2.13,0,0,0-2.14,2.14Z"/><path class="cls-7" d="M47,4.22a.43.43,0,0,0,.43.43.44.44,0,0,0,.43-.43.43.43,0,0,0-.43-.43.43.43,0,0,0-.43.43Z"/><path class="cls-6" d="M56.53,4.65a2.14,2.14,0,1,0,2.13-2.14,2.13,2.13,0,0,0-2.13,2.14Z"/><path class="cls-7" d="M59.06,4.09a.43.43,0,1,0,.43-.43.42.42,0,0,0-.43.43Z"/></g></g></svg>