<svg xmlns="http://www.w3.org/2000/svg" viewBox="0 0 82.86 90.95"><defs><style>.cls-1{fill:#5ca845;}.cls-2{fill:#6db247;}.cls-3{fill:#4b011c;}.cls-4{fill:#bfddf4;}.cls-5{fill:#171b1f;}.cls-6{fill:#cfd1d0;}.cls-7{fill:#336d35;}</style></defs><g id="Layer_2" data-name="Layer 2"><g id="Слой_5" data-name="Слой 5"><path class="cls-1" d="M82.86,74.19l-7-2.56c-1.7-3.34-5.19-5-9.66-4.47l-1.07.18c-.39.83-.77,1.66-1.12,2.51a11.38,11.38,0,0,1,2.44-.54c2.06-.24,5.69-.11,7.45,3.17l-4.14,6.15,1.79,1.2,2.74-4.08-.14,4.85,2.16.06.13-4.61,2.73,3.72,1.74-1.27-2.74-3.73,4,1.44.74-2Z"/><path class="cls-1" d="M71.74,18.65,70,17.45,67.61,21V16.33H65.46v4.61L62.62,17.3l-1.7,1.32,3,3.83-4.63-1.67-.73,2,7,2.52c.52,3.69-2.33,5.94-4.13,7a11.27,11.27,0,0,1-4.18,1.43c.45.64.86,1.3,1.28,2a14.58,14.58,0,0,0,4-1.53c3.92-2.23,5.78-5.61,5.17-9.32l4.13-6.18Z"/><path class="cls-1" d="M39.21,67.14c.69-.24,1.38-.5,2.07-.76-.52-4.13-2.72-7-6.15-8L31.27,52l-1.84,1.12,2.17,3.6-4.18-2-.92,1.95,4.18,2-4.5,1,.47,2.11,4.73-1.07-3.47,3.48,1.52,1.52,5.24-5.24c3.54,1.09,4.37,4.58,4.54,6.65Z"/><path class="cls-1" d="M47.94,41.93A11.89,11.89,0,0,1,45.28,44c-1.78,1.05-5.15,2.4-8.09.11l1.29-7.29-2.12-.38-.85,4.84-1.84-4.48-2,.81,1.74,4.27-4-2.3-1.07,1.87,4,2.31-4.19.28.14,2.15,7.44-.5c2.91,2.36,6.76,2.44,10.64.16a15.1,15.1,0,0,0,2.63-2c-.38-.65-.74-1.31-1.07-2Z"/><path class="cls-2" d="M47.91,20.07a14.75,14.75,0,1,0-5.68,11.71c0,3.31,2.52,7,2.87,10.51,3.67,38.1-41.33,33-35.6,9.09,2-8.33,11.79-8.22,13.76-1.75a12.32,12.32,0,0,1-.06,7.69.23.23,0,0,0,.39.24C25.73,55,28.22,51,25.87,45.63c-2.94-6.76-11.45-9-18.33-4-9,6.54-11.11,25.15.2,37.9A33.78,33.78,0,0,0,52.27,85c34.36-24.22.84-63.7-4.36-64.9Z"/><path class="cls-3" d="M41.68,17.08a9,9,0,0,1-16.8,6.4l-.65.24a9.7,9.7,0,0,0,18.1-6.89l-.65.25Z"/><path class="cls-2" d="M29.77,8.53A8.47,8.47,0,1,1,21.31.07a8.47,8.47,0,0,1,8.46,8.46Z"/><path class="cls-4" d="M28.55,8.53a7.24,7.24,0,1,1-7.24-7.24,7.25,7.25,0,0,1,7.24,7.24Z"/><path class="cls-5" d="M24.11,8.53a2.81,2.81,0,1,1-2.8-2.8,2.8,2.8,0,0,1,2.8,2.8Z"/><path class="cls-6" d="M23.5,7.31a1,1,0,1,1-1-1,1,1,0,0,1,1,1Z"/><path class="cls-2" d="M45.47,8.47A8.47,8.47,0,1,1,37,0a8.46,8.46,0,0,1,8.46,8.47Z"/><path class="cls-4" d="M44.25,8.47A7.25,7.25,0,1,1,37,1.22a7.24,7.24,0,0,1,7.24,7.25Z"/><path class="cls-5" d="M39.81,8.47A2.81,2.81,0,1,1,37,5.66a2.81,2.81,0,0,1,2.8,2.81Z"/><path class="cls-6" d="M39.2,7.24a1,1,0,1,1-1-1,1,1,0,0,1,1,1Z"/><path class="cls-7" d="M51.67,23.06s3.91,3.64,5.45,6.54c0,0-16.1,10.78-5.45-6.54Z"/><path class="cls-7" d="M60.83,35.32S64.2,41.25,65,44.15c0,0-21.76,5.52-4.18-8.83Z"/><path class="cls-7" d="M67,51.89a33.33,33.33,0,0,1,.2,10.72S40.89,57.49,67,51.89Z"/><path class="cls-7" d="M64.53,71a32.9,32.9,0,0,1-6.12,8.75S38.4,58.5,64.53,71Z"/><path class="cls-7" d="M50.52,86.12a39.38,39.38,0,0,1-10.71,4.17S34,56.34,50.52,86.12Z"/><path class="cls-7" d="M31.26,90.83A39.09,39.09,0,0,1,21.76,89s8.75-27.76,9.5,1.88Z"/><path class="cls-7" d="M14.21,85a32.48,32.48,0,0,1-6.47-5.48s15-14,6.47,5.48Z"/></g></g></svg>