<svg xmlns="http://www.w3.org/2000/svg" viewBox="0 0 110.01 88.13"><defs><style>.cls-1{fill:#f26537;}.cls-2{fill:#fab52d;}.cls-3{fill:#96d6d8;}.cls-4{fill:#bfddf4;}.cls-5{fill:#171b1f;}.cls-6{fill:#cfd1d0;}</style></defs><g id="Layer_2" data-name="Layer 2"><g id="Слой_5" data-name="Слой 5"><path class="cls-1" d="M61.08,84.5c-.27-.3-3-3.39-3.33-3.58,0,0,0-.06,0-.08v-6c0-1.3-.75-2.36-1.66-2.36s-1.67,1.06-1.67,2.36v6s0,.07,0,.11c-.35.19-3.07,3.29-3.34,3.59a1.22,1.22,0,0,0,1.82,1.64l2-2.24,0,2.87a1.23,1.23,0,0,0,2.45,0l0-2.75,1.85,2.06a1.23,1.23,0,0,0,1.83-1.64Z"/><path class="cls-2" d="M87.94,50.74A25.33,25.33,0,1,1,62.61,25.41,25.33,25.33,0,0,1,87.94,50.74Z"/><path class="cls-2" d="M88.54,14.41l-.79-.85a4.16,4.16,0,0,0-5.36-.62L83,11.55A4.17,4.17,0,0,0,81,6L80,5.53a4.15,4.15,0,0,0-4.7.86l.08-1.78a4.17,4.17,0,0,0-4-4.35L70.2.21a4.16,4.16,0,0,0-4.34,4L64.79,28.32s3.18,10.8,4.87,9.23L88.31,20.3a4.17,4.17,0,0,0,.23-5.89Z"/><path class="cls-2" d="M106,47.65c2.76-1.09,3.34-2.82,2.67-4.52l-.33-.83a3.22,3.22,0,0,0-4.18-1.8l-17.64,7c-.62.13-.61,7-.27,7.09l17.61,7.48a3.23,3.23,0,0,0,4.22-1.7l.35-.83c.71-1.69.15-3.43-2.53-4.57,2.87,0,4.11-1.31,4.14-3.16v-.9c0-1.83-1.17-3.23-4.05-3.27Z"/><path class="cls-2" d="M62.23,28.2,61.58,4.05A4.17,4.17,0,0,0,57.3,0L56.14,0a4.17,4.17,0,0,0-4,4.28l0,1.78a4.15,4.15,0,0,0-4.68-.94l-1.06.47a4.16,4.16,0,0,0-2.12,5.5l.62,1.4a4.15,4.15,0,0,0-5.37.53l-.81.83a4.17,4.17,0,0,0,.13,5.89L57.2,37.35c1.66,1.59,5-9.15,5-9.15Z"/><path class="cls-1" d="M74.6,84.59c-.27-.3-3-3.38-3.33-3.58,0,0,0-.06,0-.08v-6c0-1.3-.75-2.36-1.67-2.36S68,73.59,68,74.89v6S68,81,68,81c-.35.19-3.07,3.29-3.34,3.59a1.22,1.22,0,0,0,1.82,1.64l2-2.24,0,2.87a1.23,1.23,0,0,0,2.46,0l0-2.75,1.85,2.06a1.23,1.23,0,0,0,1.83-1.64Z"/><path class="cls-3" d="M63.14,60.68A29.8,29.8,0,0,1,37.72,46.06a25.78,25.78,0,0,0-.44,4.68,25.33,25.33,0,0,0,50.66,0,24.66,24.66,0,0,0-.23-3.34A29.76,29.76,0,0,1,63.14,60.68Z"/><path class="cls-2" d="M48,50.59A18.63,18.63,0,1,1,29.4,32,18.63,18.63,0,0,1,48,50.59Z"/><path class="cls-2" d="M23.67,41.63A9.65,9.65,0,1,1,14,32a9.65,9.65,0,0,1,9.64,9.64Z"/><path class="cls-4" d="M22.28,41.63A8.25,8.25,0,1,1,14,33.38a8.25,8.25,0,0,1,8.25,8.25Z"/><path class="cls-5" d="M17.22,41.63A3.2,3.2,0,1,1,14,38.44a3.19,3.19,0,0,1,3.19,3.19Z"/><path class="cls-6" d="M16.52,40.24a1.1,1.1,0,1,1-1.1-1.1,1.11,1.11,0,0,1,1.1,1.1Z"/><path class="cls-2" d="M42.48,41.63A9.65,9.65,0,1,1,32.84,32a9.65,9.65,0,0,1,9.64,9.64Z"/><path class="cls-4" d="M41.09,41.63a8.25,8.25,0,1,1-8.25-8.25,8.25,8.25,0,0,1,8.25,8.25Z"/><path class="cls-5" d="M36,41.63a3.2,3.2,0,1,1-3.19-3.19A3.19,3.19,0,0,1,36,41.63Z"/><path class="cls-6" d="M35.34,40.24a1.11,1.11,0,1,1-2.21,0,1.11,1.11,0,0,1,2.21,0Z"/><polygon class="cls-1" points="20.92 49.5 0 54.93 21.43 58.33 24.26 53.73 20.92 49.5 20.92 49.5"/></g></g></svg>