<svg xmlns="http://www.w3.org/2000/svg" viewBox="0 0 114.14 90.71"><defs><style>.cls-1{fill:#11a7bb;}.cls-2{fill:#fab52d;}.cls-3{fill:#52c2bc;}.cls-4{fill:#0face4;}.cls-5{fill:#4b011c;}.cls-6{fill:#bfddf4;}.cls-7{fill:#171b1f;}.cls-8{fill:#cfd1d0;}</style></defs><g id="Layer_2" data-name="Layer 2"><g id="Слой_5" data-name="Слой 5"><path class="cls-1" d="M105.77,82.85H28.19a8.38,8.38,0,0,1-8.38-8.37h0a8.38,8.38,0,0,1,8.38-8.38h77.58a8.38,8.38,0,0,1,8.37,8.38h0a8.37,8.37,0,0,1-8.37,8.37Z"/><path class="cls-1" d="M63.65,90.71h0a2.45,2.45,0,0,1-2.44-2.44V82a2.44,2.44,0,0,1,2.44-2.44h0A2.44,2.44,0,0,1,66.09,82v6.25a2.44,2.44,0,0,1-2.44,2.44Z"/><path class="cls-2" d="M81.4,90.67h0A2.43,2.43,0,0,1,79,88.23V82a2.43,2.43,0,0,1,2.43-2.44h0A2.44,2.44,0,0,1,83.84,82v6.25a2.44,2.44,0,0,1-2.44,2.44Z"/><path class="cls-1" d="M97.92,90.68h0a2.43,2.43,0,0,1-2.43-2.44V82a2.43,2.43,0,0,1,2.43-2.44h0A2.44,2.44,0,0,1,100.36,82v6.25a2.44,2.44,0,0,1-2.44,2.44Z"/><path class="cls-2" d="M44.22,90.67h0a2.44,2.44,0,0,1-2.44-2.44V82a2.44,2.44,0,0,1,2.44-2.44h0A2.43,2.43,0,0,1,46.65,82v6.25a2.43,2.43,0,0,1-2.43,2.44Z"/><path class="cls-1" d="M83.69,36A27.12,27.12,0,0,1,75.76,47.5L53.89,66.25S34.73,30,71.15,0l7.58,8.83a27.37,27.37,0,0,1,5,27.18Z"/><path class="cls-3" d="M110.51,27.2V38.82A27.43,27.43,0,0,1,83.08,66.25H54s9.31-40,56.48-39Z"/><path class="cls-4" d="M21.4,52.2l-1.87.35a148.84,148.84,0,0,0-5.82-21.73c-.94-2.68-2.61-7.06-5.39-8.31-5.47-2.44-9,5.41-3.82,7L4,31.28a5.45,5.45,0,0,1-3.4-7.59A7,7,0,0,1,9.1,20.77c3.38,1.52,5.25,6.1,6.41,9.42a150.13,150.13,0,0,1,5.89,22Z"/><path class="cls-4" d="M26.21,51.14l-1.87-.38A148.13,148.13,0,0,0,27.1,28.44c.08-1.71.44-7.31-1.88-9.73a5,5,0,0,0-6.4-.37,3.55,3.55,0,0,0,.25,5.37l-1.19,1.5a5.46,5.46,0,0,1-.3-8.31,7,7,0,0,1,9,.49C29.16,20.06,29.17,25,29,28.53a149.23,149.23,0,0,1-2.79,22.61Z"/><path class="cls-2" d="M44.37,66.1A17.37,17.37,0,1,0,27,82.85H56.9V66.1Z"/><path class="cls-5" d="M37.05,61.83a10.63,10.63,0,0,1-19.83,7.55l-.77.29a11.45,11.45,0,0,0,21.36-8.13l-.76.29Z"/><path class="cls-2" d="M23,51.74a10,10,0,1,1-10-10,10,10,0,0,1,10,10Z"/><path class="cls-6" d="M21.55,51.74A8.55,8.55,0,1,1,13,43.2a8.55,8.55,0,0,1,8.55,8.54Z"/><path class="cls-7" d="M16.31,51.74A3.31,3.31,0,1,1,13,48.43a3.31,3.31,0,0,1,3.31,3.31Z"/><path class="cls-8" d="M15.59,50.3a1.14,1.14,0,1,1-1.14-1.14,1.14,1.14,0,0,1,1.14,1.14Z"/><path class="cls-2" d="M41.59,51.82a10,10,0,1,1-10-10,10,10,0,0,1,10,10Z"/><path class="cls-6" d="M40.15,51.82a8.55,8.55,0,1,1-8.55-8.54,8.55,8.55,0,0,1,8.55,8.54Z"/><path class="cls-7" d="M34.91,51.82a3.31,3.31,0,1,1-3.31-3.31,3.31,3.31,0,0,1,3.31,3.31Z"/><path class="cls-8" d="M34.19,50.38a1.15,1.15,0,1,1-1.14-1.14,1.14,1.14,0,0,1,1.14,1.14Z"/><polygon class="cls-1" points="74.61 82.8 56.8 82.8 56.8 66.1 74.61 66.1 74.61 82.8 74.61 82.8"/><polygon class="cls-2" points="92.41 82.88 74.61 82.88 74.61 66.1 92.41 66.1 92.41 82.88 92.41 82.88"/></g></g></svg>