<svg xmlns="http://www.w3.org/2000/svg" viewBox="0 0 109.72 105.72"><defs><style>.cls-1{fill:#ffc64e;}.cls-2{fill:#f15d5d;}.cls-3{fill:#f49ec4;}.cls-4{fill:#f08453;}.cls-5{fill:#4b011c;}.cls-6{fill:#bfddf4;}.cls-7{fill:#171b1f;}.cls-8{fill:#cfd1d0;}</style></defs><g id="Layer_2" data-name="Layer 2"><g id="Слой_5" data-name="Слой 5"><path class="cls-1" d="M37.76,10.15a4.4,4.4,0,0,0-8.71.92c0,5.23,7.59,6.09,8.71.94,5.45,1.3,11.35,8.25,10.37,20.1l1.82.15c.81-9.84-3.42-20.39-12.19-22.11Z"/><path class="cls-1" d="M47.09,6.6A4.4,4.4,0,1,0,45.85,8c6.47,4.05,7.26,13.67,4.82,21.42l1.74.54c3-9.39,1.09-19.07-5.32-23.33Z"/><path class="cls-1" d="M22.92,81.41c-5.31,7.85,5.56,17.39,14.22,22,1.68.88,7.62,1.73,8.37-4.93.84-7.43,1.35-8.25,3.63-23.15,0,0-21.2-1.29-26.22,6.13Z"/><path class="cls-2" d="M23.25,75.19l25.92,0S40.36,41.63,10.68,37c-5-.78-7.87.19-9.41,2.05-5.21,6.24,6.27,36.09,22,36.13Z"/><path class="cls-2" d="M25.51,94.48a52.56,52.56,0,0,0,5,4.69,26.2,26.2,0,0,1,1.68-9c3-7.62,9.57-12.08,16.87-15-27.65-1.13-32.36,9-23.59,19.27Z"/><path class="cls-1" d="M1.27,39.06l47.9,36.18S40.36,41.63,10.68,37c-5-.78-7.87.19-9.41,2.05Z"/><path class="cls-3" d="M31.07,56a9,9,0,1,1-9-9,9,9,0,0,1,9,9Z"/><path class="cls-4" d="M70.88,46.77A16.61,16.61,0,1,0,49.21,62.59v37.46a5.67,5.67,0,1,0,11.34,0V62.15A16.62,16.62,0,0,0,70.88,46.77Z"/><path class="cls-5" d="M63.85,43.29a10.15,10.15,0,0,1-18.94,7.22l-.74.28A10.94,10.94,0,0,0,64.58,43l-.73.28Z"/><path class="cls-4" d="M50.42,33.66a9.55,9.55,0,1,1-9.54-9.55,9.54,9.54,0,0,1,9.54,9.55Z"/><path class="cls-6" d="M49,33.66a8.17,8.17,0,1,1-8.16-8.17A8.16,8.16,0,0,1,49,33.66Z"/><path class="cls-7" d="M44,33.66a3.17,3.17,0,1,1-3.16-3.17A3.17,3.17,0,0,1,44,33.66Z"/><path class="cls-8" d="M43.35,32.28a1.09,1.09,0,1,1-1.09-1.1,1.09,1.09,0,0,1,1.09,1.1Z"/><path class="cls-4" d="M68.66,33.66a9.55,9.55,0,1,1-9.55-9.55,9.55,9.55,0,0,1,9.55,9.55Z"/><path class="cls-6" d="M67.27,33.66a8.17,8.17,0,1,1-8.16-8.17,8.16,8.16,0,0,1,8.16,8.17Z"/><path class="cls-7" d="M62.27,33.66a3.16,3.16,0,1,1-3.16-3.17,3.16,3.16,0,0,1,3.16,3.17Z"/><path class="cls-8" d="M61.58,32.28a1.09,1.09,0,1,1-1.09-1.1,1.09,1.09,0,0,1,1.09,1.1Z"/><path class="cls-1" d="M86.8,81.49c5.3,7.84-5.56,17.39-14.22,22-1.68.88-7.62,1.73-8.37-4.94-.84-7.42-1.35-8.25-3.63-23.15,0,0,21.2-1.29,26.22,6.14Z"/><path class="cls-2" d="M108.45,39.13c-1.54-1.85-4.43-2.82-9.41-2.05C69.36,41.7,60.55,75.31,60.55,75.31l25.92,0c15.71,0,27.19-29.88,22-36.13Z"/><path class="cls-2" d="M84.21,94.56a50.29,50.29,0,0,1-5,4.69,26.07,26.07,0,0,0-1.68-9c-2.95-7.62-9.57-12.08-16.87-15,27.65-1.13,32.36,9,23.59,19.28Z"/><path class="cls-1" d="M108.45,39.13,60.55,75.31S69.36,41.7,99,37.08c5-.77,7.87.2,9.41,2.05Z"/><path class="cls-3" d="M78.88,56a9,9,0,1,0,9-9,9,9,0,0,0-9,9Z"/></g></g></svg>