<svg xmlns="http://www.w3.org/2000/svg" viewBox="0 0 126.73 87.38"><defs><style>.cls-1{fill:#f08453;}.cls-2{fill:#bfddf4;}.cls-3{fill:#9cc3d9;}.cls-4{fill:#9b4d31;}.cls-5{fill:#171b1f;}.cls-6{fill:#cfd1d0;}.cls-7{fill:#dceffb;}</style></defs><g id="Layer_2" data-name="Layer 2"><g id="Слой_5" data-name="Слой 5"><path class="cls-1" d="M69,74.94v9a3.48,3.48,0,0,1-7,0v-9A3.48,3.48,0,0,1,68,72.47a3.54,3.54,0,0,1,1,2.47Z"/><path class="cls-1" d="M86.07,74.94v9a3.49,3.49,0,0,1-7,0v-9a3.49,3.49,0,0,1,6-2.47,3.54,3.54,0,0,1,1,2.47Z"/><path class="cls-1" d="M95.14,75v9a3.49,3.49,0,0,1-7,0V75a3.49,3.49,0,1,1,7,0Z"/><path class="cls-1" d="M60.17,74.94v9a3.48,3.48,0,0,1-7,0v-9a3.48,3.48,0,1,1,7,0Z"/><path class="cls-2" d="M102.79,18.2c-.18-.22-.37-.43-.56-.65C105.3,8.29,94.27,1,86.92,7.09l-.47-.16a9.66,9.66,0,0,0-17.79-1.8,9.65,9.65,0,0,0-16.85,6.4c0,.11,0,.22,0,.32-9-3.59-16.93,6.82-11.45,14.54C28.89,50.91,46.71,79.54,74.2,79.54A37.35,37.35,0,0,0,110.8,34.8c6.89-6.4,1.42-18-8-16.6Z"/><path class="cls-3" d="M.18,50.92l5.05-.41a12,12,0,0,0,11-12.89L15.15,25S-1.91,30.46.18,50.92Z"/><path class="cls-3" d="M60.81,48.21l-5.05.42a12,12,0,0,1-12.89-11l-1-12.62s17.72,2.62,19,23.15Z"/><path class="cls-1" d="M47.15,42.37A17.2,17.2,0,1,1,30,25.17a17.2,17.2,0,0,1,17.2,17.2Z"/><path class="cls-4" d="M38.72,42.22A10.52,10.52,0,0,1,19.1,49.69l-.75.29a11.32,11.32,0,0,0,21.13-8l-.76.29Z"/><path class="cls-1" d="M26,28.79a9.89,9.89,0,1,1-9.89-9.88A9.88,9.88,0,0,1,26,28.79Z"/><path class="cls-2" d="M24.54,28.79a8.46,8.46,0,1,1-8.46-8.45,8.46,8.46,0,0,1,8.46,8.45Z"/><path class="cls-5" d="M19.36,28.79a3.28,3.28,0,1,1-3.28-3.27,3.28,3.28,0,0,1,3.28,3.27Z"/><path class="cls-6" d="M18.64,27.36a1.13,1.13,0,1,1-2.26,0,1.13,1.13,0,0,1,2.26,0Z"/><path class="cls-1" d="M44.19,28.79a9.89,9.89,0,1,1-9.89-9.88,9.88,9.88,0,0,1,9.89,9.88Z"/><path class="cls-2" d="M42.76,28.79a8.46,8.46,0,1,1-8.46-8.45,8.46,8.46,0,0,1,8.46,8.45Z"/><path class="cls-5" d="M37.58,28.79a3.28,3.28,0,1,1-3.28-3.27,3.28,3.28,0,0,1,3.28,3.27Z"/><path class="cls-6" d="M36.86,27.36a1.13,1.13,0,0,1-2.26,0,1.13,1.13,0,0,1,2.26,0Z"/><path class="cls-2" d="M126.73,46.18l-3.48,1.69a9.12,9.12,0,0,1-12.18-4.23L106.85,35s13.33-3,19.88,11.23Z"/><path class="cls-5" d="M53.21,84h7a3.48,3.48,0,0,1-7,0Z"/><path class="cls-5" d="M62,84h7a3.48,3.48,0,0,1-7,0Z"/><path class="cls-5" d="M79.09,84h7a3.49,3.49,0,0,1-7,0Z"/><path class="cls-5" d="M95.14,84a3.49,3.49,0,0,1-7,0Z"/><path class="cls-7" d="M90.42,27.61c6.44-10.32-8.8-20.9-16-10.68a9.64,9.64,0,0,0-12.64-5c-10.07,4.3-6.24,19.5,4.68,18.48-6.21,10.47,9.31,20.72,16.29,10.3A9.63,9.63,0,0,0,95.49,46c10.25-4.38,6-19.92-5.07-18.43Z"/><path class="cls-4" d="M23.82,48.94c0,.84-.45,1.53-1,1.53s-1-.69-1-1.53.45-1.54,1-1.54,1,.69,1,1.54Z"/><path class="cls-4" d="M28.43,48.94c0,.84-.45,1.53-1,1.53s-1-.69-1-1.53.45-1.54,1-1.54,1,.69,1,1.54Z"/></g></g></svg>