<svg xmlns="http://www.w3.org/2000/svg" viewBox="0 0 92.84 103.21"><defs><style>.cls-1{fill:#f89b2c;}.cls-2{fill:#f58131;}.cls-3{fill:#f6d394;}.cls-4{fill:#f6dfb6;}.cls-5{fill:#00172a;}.cls-6{fill:#fac58a;}</style></defs><g id="Layer_2" data-name="Layer 2"><g id="Слой_5" data-name="Слой 5"><path class="cls-1" d="M74.69,78.58V97.8H44.24c-4.38,0-7.92-4.46-7.79-9.9.14-5.26,3.85-9.32,8.11-9.32Z"/><polygon class="cls-2" points="42.41 88.11 17.22 88.11 17.22 32.02 42.41 32.02 42.41 88.11 42.41 88.11"/><path class="cls-2" d="M55.69,89.21c0,7.73-6.68,14-14.91,14s-14.91-6.27-14.91-14,6.68-14,14.91-14,14.91,6.27,14.91,14Z"/><path class="cls-2" d="M33.76,89.21c0,7.73-6.68,14-14.91,14s-14.91-6.27-14.91-14,6.68-14,14.91-14,14.91,6.27,14.91,14Z"/><polygon class="cls-2" points="40.8 85.74 18.83 85.74 18.83 103.21 40.8 103.21 40.8 85.74 40.8 85.74"/><path class="cls-2" d="M20.15,97.79H5.2c-3.36,0-5.2,1.58-5.2,5.42H20.15V97.79Z"/><path class="cls-2" d="M39.48,97.79h15c3.36,0,5.2,1.58,5.2,5.42H39.48V97.79Z"/><polygon class="cls-1" points="26.57 103.21 20.15 103.21 20.15 67.72 26.57 67.72 26.57 103.21 26.57 103.21"/><polygon class="cls-1" points="39.48 97.19 33.06 97.19 33.06 67.72 39.48 67.72 39.48 97.19 39.48 97.19"/><path class="cls-3" d="M10.63,40s-4.44-.46-5.43,6.9l-1,7.37L29.85,64.71V44.32L10.63,40Z"/><path class="cls-3" d="M49,40s4.44-.46,5.44,6.9l1,7.37L29.78,64.71V44.32L49,40Z"/><path class="cls-2" d="M36.46,11.54H23.17A16.66,16.66,0,0,0,6.51,28.2v1.66H12.7L25.1,44.41,23.82,53.6l.26.27a8.05,8.05,0,0,0,11.47,0L53.12,36.06V28.2A16.66,16.66,0,0,0,36.46,11.54Z"/><polygon class="cls-4" points="12.7 29.86 6.51 29.86 6.51 36.06 23.82 53.6 25.1 44.41 12.7 29.86 12.7 29.86"/><polygon class="cls-4" points="46.93 29.86 53.12 29.86 53.12 36.06 35.81 53.6 34.53 44.41 46.93 29.86 46.93 29.86"/><path class="cls-5" d="M32.78,52.52A1.08,1.08,0,0,1,31.7,53.6H27.93a1.08,1.08,0,0,1-1.08-1.08V51.15a1.08,1.08,0,0,1,1.08-1.08H31.7a1.08,1.08,0,0,1,1.08,1.08v1.37Z"/><polygon class="cls-2" points="8.88 23.07 7.18 13.74 10.95 0 23.08 15.63 8.88 23.07 8.88 23.07"/><polygon class="cls-2" points="50.75 23.07 52.45 13.74 48.68 0 36.55 15.63 50.75 23.07 50.75 23.07"/><polygon class="cls-5" points="17.46 32.02 21.41 32.02 23.08 35.79 18.5 34.89 17.46 32.02 17.46 32.02"/><polygon class="cls-5" points="42.17 32.02 38.22 32.02 36.55 35.79 41.13 34.89 42.17 32.02 42.17 32.02"/><path class="cls-3" d="M74.69,97.8V78.58c5.43,0,10.57-.76,15.81-5.63,1-.91,2.34-.09,2.34,1.4,0,23.48-7.17,23.45-18.15,23.45Z"/><path class="cls-6" d="M29.52,97.8a5.39,5.39,0,0,1-5.39,5.39H22.18a5.39,5.39,0,0,1-5.39-5.39V96.59a5.39,5.39,0,0,1,5.39-5.39h1.95a5.39,5.39,0,0,1,5.39,5.39V97.8Z"/><path class="cls-6" d="M42.84,97.8a5.39,5.39,0,0,1-5.39,5.39h-2a5.39,5.39,0,0,1-5.39-5.39V96.59A5.39,5.39,0,0,1,35.5,91.2h2a5.39,5.39,0,0,1,5.39,5.39V97.8Z"/></g></g></svg>