<svg xmlns="http://www.w3.org/2000/svg" viewBox="0 0 128.24 82.16"><defs><style>.cls-1{fill:#f08453;}.cls-2{fill:#bfddf4;}.cls-3{fill:#171b1f;}.cls-4{fill:#cfd1d0;}.cls-5{fill:#4b011c;}.cls-6{fill:#a44f60;}</style></defs><g id="Layer_2" data-name="Layer 2"><g id="Слой_5" data-name="Слой 5"><path class="cls-1" d="M120.9,67.49H44.45A17.67,17.67,0,1,0,27,82.16H120.9a7.34,7.34,0,1,0,0-14.67Z"/><polygon class="cls-1" points="18.6 56.01 13.52 56.01 13.52 28.36 18.6 28.36 18.6 56.01 18.6 56.01"/><path class="cls-1" d="M17.73,29.91a8.87,8.87,0,1,1-8.86-8.86,8.87,8.87,0,0,1,8.86,8.86Z"/><path class="cls-2" d="M16.45,29.91a7.59,7.59,0,1,1-7.58-7.58,7.59,7.59,0,0,1,7.58,7.58Z"/><path class="cls-3" d="M11.8,29.91A2.94,2.94,0,1,1,8.87,27a2.93,2.93,0,0,1,2.93,2.93Z"/><path class="cls-4" d="M11.16,28.63a1,1,0,1,1-1-1,1,1,0,0,1,1,1Z"/><path class="cls-5" d="M122.78,40a40,40,0,1,1-40-40,40,40,0,0,1,40,40Z"/><polygon class="cls-1" points="34.19 55.73 29.11 55.73 29.11 28.08 34.19 28.08 34.19 55.73 34.19 55.73"/><path class="cls-1" d="M34.26,29.35a8.87,8.87,0,1,1-8.87-8.86,8.86,8.86,0,0,1,8.87,8.86Z"/><path class="cls-2" d="M33,29.35a7.58,7.58,0,1,1-7.58-7.58A7.58,7.58,0,0,1,33,29.35Z"/><path class="cls-3" d="M28.33,29.35a2.94,2.94,0,1,1-2.94-2.94,2.94,2.94,0,0,1,2.94,2.94Z"/><path class="cls-4" d="M27.69,28.07a1,1,0,1,1-1-1,1,1,0,0,1,1,1Z"/><path class="cls-5" d="M37.27,66.13a10.81,10.81,0,0,1-21.59,0h-.83a11.64,11.64,0,0,0,23.25,0Z"/><path class="cls-6" d="M103.5,37.47C99.82,53.26,77.74,58,65.26,46.39c-8.73-8.09-11.59-21.75-6.8-32.51a27.24,27.24,0,0,1,9.63-11.1A28,28,0,0,1,72.24,1.4,28.69,28.69,0,0,0,60,14.57c-4.52,10.11-1.82,23,6.4,30.57,11.63,10.76,32.07,6.34,35.45-8A16.19,16.19,0,0,0,91.54,18.35c-6.28-2.18-16.45-.64-17.59,7.19S80.8,36,84.4,32c1.53-1.73.7-5.42-1.55-5.46l0-1.69c3.77.08,5.24,5.5,2.78,8.27-4.7,5.27-14.77,1.66-13.4-7.79,1.29-8.83,12.33-11.15,19.83-8.54A17.88,17.88,0,0,1,103.5,37.47Z"/></g></g></svg>