<svg xmlns="http://www.w3.org/2000/svg" viewBox="0 0 83.36 96.59"><defs><style>.cls-1{fill:#391b12;}.cls-2{fill:#e48f3b;}.cls-3{fill:#ef59a0;}.cls-4{fill:#200607;}.cls-5{fill:#f4f08a;}.cls-6{fill:#0c1f26;}.cls-7{fill:#0c2027;}.cls-8{fill:#f78e29;}</style></defs><g id="Layer_2" data-name="Layer 2"><g id="Слой_5" data-name="Слой 5"><path class="cls-1" d="M51.19,87.35s15-10.72,20.32-20.42l5.34-9.69s7.48,2.29,6.41,9.69-29.38,24.5-29.38,24.5l-2.69-4.08Z"/><path class="cls-2" d="M64.07,90.79H55.42l3.34-5.69-4-45.78H13.47l-4,45.78,3.34,5.69H4.2c-3.7,0-4.2,3.13-4.2,5.8H68.27c0-2.83-.54-5.8-4.2-5.8Z"/><path class="cls-1" d="M11.51,35.69H56.76l-10.6,53h2a4,4,0,0,1,0,7.9H38.55v-27H29.72v27H20.16a4,4,0,0,1,0-7.9h1.95l-10.6-53Z"/><path class="cls-2" d="M58.47,30.31v8.41l-3.32-1.6v4.63l-3.91-3c-2.81,3.09-5.72,5.5-10.81,5.5H27.85c-5,0-7.91-2.31-10.81-5.5l-3.92,3V37.12L9.8,38.72V30.31L17,26.09V8.28L22,.74,28.44.31c6.29-.43,5.31-.41,12.13,0l5.68.39,5,7.54V26.09l7.18,4.22Z"/><polygon class="cls-3" points="36.87 41.75 31.4 41.75 30.33 35.69 37.94 35.69 36.87 41.75 36.87 41.75"/><path class="cls-4" d="M27.1,15.49a1.51,1.51,0,1,1-1.51-1.56,1.54,1.54,0,0,1,1.51,1.56Z"/><path class="cls-4" d="M44.19,15.49a1.51,1.51,0,1,1-1.51-1.56,1.54,1.54,0,0,1,1.51,1.56Z"/><path class="cls-1" d="M22,.74h0a7.51,7.51,0,0,0-8.62,2l-10.27,12C-2.56,21.32,4.59,33.38,9,30.76L17,26.09V8.28L22,.74Z"/><path class="cls-1" d="M46.23.74h0a7.51,7.51,0,0,1,8.62,2l10.28,12c5.87,6.84-1.88,18.43-5.92,16.05l-7.93-4.67V8.28L46.23.74Z"/><path class="cls-5" d="M34.13,18.64h0c-7.68,0-8.92,7.31-10.6,12.15a7.67,7.67,0,0,0,1.65,7.73c3.34,3.56,7.29.86,9,0,1.47.75,5.56,3.62,9,0a7.65,7.65,0,0,0,1.65-7.73C43,25.87,41.82,18.64,34.13,18.64Z"/><path class="cls-6" d="M37.63,21h-7c-.71,0-1,1.45-.5,2.21.41.59,2,2.95,2.47,3.38v9.13h3V26.56c.46-.43,2.06-2.79,2.47-3.38.54-.76.21-2.21-.5-2.21Z"/><path class="cls-5" d="M40.2.35,36.14,19.82h-4L28.07.31c6.29-.43,5.3-.41,12.13,0Z"/><polygon class="cls-7" points="35.43 50.46 32.84 50.46 32.84 44.22 35.43 44.22 35.43 50.46 35.43 50.46"/><path class="cls-8" d="M38,50.46a3.82,3.82,0,1,1-3.82-3.81A3.82,3.82,0,0,1,38,50.46Z"/></g></g></svg>