<svg xmlns="http://www.w3.org/2000/svg" viewBox="0 0 117.13 104.5"><defs><style>.cls-1{fill:#fab52d;}.cls-2{fill:#19171c;}.cls-3{fill:#b56f27;}.cls-4{fill:#9dd8d6;}.cls-5{fill:#5cc7d1;}.cls-6{fill:#d97f26;}</style></defs><g id="Layer_2" data-name="Layer 2"><g id="Слой_5" data-name="Слой 5"><path class="cls-1" d="M30.88,79.14h0a.76.76,0,0,1-.65-.85l.12-.92c.42-3.32.89-7.09,2.4-10,.24-.47,12.42-3.47,12.69-3.55l.4,1.47c-.3.08-10.75,2.5-11.84,3-1.31,2.64-1.75,6.17-2.14,9.3l-.12.93a.75.75,0,0,1-.86.65Z"/><path class="cls-1" d="M84.42,79.33h0a.76.76,0,0,0,.66-.85c0-.3-.08-.61-.11-.92-.39-3.33-.84-7.1-2.33-10C82.4,67.08,70.24,64,70,63.91l-.42,1.47c.3.08,10.73,2.57,11.82,3,1.29,2.65,1.71,6.19,2.08,9.32,0,.31.07.62.11.93a.76.76,0,0,0,.85.66Z"/><path class="cls-1" d="M34.2,95.18h0a.78.78,0,0,1-.89-.61l-.18-.91c-.65-3.29-1.39-7-.87-10.24.09-.52,10.7-7.2,10.94-7.36L44,77.33c-.26.17-9.42,5.75-10.31,6.53-.41,2.92.28,6.41.89,9.5l.18.93a.76.76,0,0,1-.6.89Z"/><path class="cls-1" d="M81.34,95.78h0a.76.76,0,0,0,.9-.58c.07-.3.13-.6.2-.91.74-3.26,1.57-7,1.14-10.21-.07-.52-10.51-7.48-10.74-7.64L72,77.68c.25.18,9.26,6,10.13,6.8.34,2.93-.45,6.4-1.14,9.48l-.21.92a.76.76,0,0,0,.59.9Z"/><path class="cls-1" d="M58.37,67.19c6.47,0,11.71-7.95,11.71-17.76S64.84,31.66,58.37,31.66s-11.71,8-11.71,17.77S51.9,67.19,58.37,67.19Z"/><path class="cls-2" d="M64.75,18.92c1.06-5.53,3.8-10.74,7.14-13.6A13.73,13.73,0,0,1,79.6,1.85s-.46-2-.45-1.84a15.27,15.27,0,0,0-8.48,3.88C67,7.06,64.06,12.54,62.9,18.56l1.85.36Z"/><path class="cls-3" d="M46.66,52.05c-4.3,4.78-8.15,12-8.15,19.92,0,14.29,18.12,32.53,19.65,32.53S77.79,86.17,77.79,72a30.5,30.5,0,0,0-7.71-19.92Z"/><path class="cls-2" d="M52.33,18.92C51,13.44,48,8.37,44.55,5.67a13.74,13.74,0,0,0-7.87-3.09s.37-2,.37-1.87A15.32,15.32,0,0,1,45.7,4.19c3.85,3,7,8.33,8.45,14.29l-1.82.44Z"/><path class="cls-1" d="M58.75,36.7A12.1,12.1,0,1,0,46.66,24.6,12.09,12.09,0,0,0,58.75,36.7Z"/><path class="cls-2" d="M57.46,19.81a4.76,4.76,0,1,1-4.76-4.76,4.76,4.76,0,0,1,4.76,4.76Z"/><path class="cls-4" d="M53.31,18.57a1.66,1.66,0,0,1-3.29,0,1.66,1.66,0,0,1,3.29,0Z"/><path class="cls-2" d="M69.91,19.81a4.76,4.76,0,1,1-4.76-4.76,4.76,4.76,0,0,1,4.76,4.76Z"/><path class="cls-4" d="M65.76,18.57a1.66,1.66,0,0,1-3.29,0,1.66,1.66,0,0,1,3.29,0Z"/><path class="cls-5" d="M37.91,50l15-14.91S23.92,22,0,46.87L7,52c9.24,6.77,23.07,5.76,30.87-2Z"/><path class="cls-4" d="M15.67,63.38l7.54,2.46a18.72,18.72,0,0,0,23.58-12L52.91,35S25,32.59,15.67,63.38Z"/><path class="cls-6" d="M28.74,48.26c7-1.41,8.31-3,24.12-13.26C52.86,35,27,22.72,0,42.68l7,3.37c6.21,3,14.53,3.66,21.7,2.21Z"/><path class="cls-5" d="M79.22,50l-15-14.91S93.21,22,117.13,46.87l-7,5.16C100.85,58.8,87,57.79,79.22,50Z"/><path class="cls-4" d="M101.46,63.38l-7.54,2.46a18.72,18.72,0,0,1-23.58-12L64.22,35s27.92-2.4,37.24,28.39Z"/><path class="cls-6" d="M88.39,48.26c-7-1.41-8.31-3-24.13-13.26,0,0,25.87-12.28,52.87,7.68l-7,3.37c-6.2,3-14.52,3.66-21.69,2.21Z"/></g></g></svg>