<svg xmlns="http://www.w3.org/2000/svg" viewBox="0 0 141.51 104.44"><defs><style>.cls-1{fill:#2a3f0c;}.cls-2{fill:#334f0f;}.cls-3{fill:#777676;}.cls-4{fill:#282020;}.cls-5{fill:#b2b2b1;}.cls-6{fill:#416814;}.cls-7{fill:#e27600;}.cls-8{fill:#f78c0d;}.cls-9{fill:#f7c90d;}</style></defs><g id="Layer_2" data-name="Layer 2"><g id="Слой_5" data-name="Слой 5"><polygon class="cls-1" points="44.97 41.78 44.97 46.47 55.28 46.47 62.13 37.95 44.97 41.78"/><path class="cls-2" d="M141.51,58.36c-17.08-7.07-13.95-7.14-28.67,1l1,6.56C130.61,69.11,127.46,69.86,141.51,58.36Z"/><path class="cls-3" d="M25,84.46H5.73C2.57,84.46,0,82.31,0,79.66V51.59C0,49,2.57,46.8,5.73,46.8h4.91l.75.94L21,49.07V68A33.83,33.83,0,0,0,25,84.46Z"/><path class="cls-3" d="M67.44,51.59V79.66c0,2.65-2.55,4.8-5.72,4.8H50.85A18.47,18.47,0,0,1,45,70.92V46.8H61.72C64.89,46.8,67.44,49,67.44,51.59Z"/><path class="cls-4" d="M50.85,84.46H25A33.83,33.83,0,0,1,21,68V46.8H45V70.92A18.47,18.47,0,0,0,50.85,84.46Z"/><rect class="cls-1" x="20.95" y="36.98" width="24.02" height="9.82"/><path class="cls-1" d="M113.81,66C99.3,67.49,91.24,70.21,91.24,81.21c0,30.26-51.25,30.55-66.23,3.25H50.85a18.5,18.5,0,0,0,12.66,5A14.57,14.57,0,0,0,78.08,74.89c0-16.7,17.5-14.35,34.76-15.47Z"/><path class="cls-5" d="M43.61,57.28l.89-1.39A24,24,0,0,0,36,51.18l.05-2.11H31.38l.06,2.11A24,24,0,0,0,23,55.89l.89,1.39a26.8,26.8,0,0,1,7.67-3l.09,3.92a22.9,22.9,0,0,0-7,4.2l.9,1.39a26,26,0,0,1,6.19-2.67l.1,3.81a14.24,14.24,0,0,0-5.55,3.93l.89,1.39a12.78,12.78,0,0,1,4.73-2.41l.1,4.35a9.72,9.72,0,0,0-3.42,2.53l.62,1S30,75.11,32,74.11c0,6.94,3.45,8.08,3.45,8.08h3a8.9,8.9,0,0,1-3-8.08,20.81,20.81,0,0,0,2.84,1.53l.63-1a9.82,9.82,0,0,0-3.42-2.54l.1-4.34a12.78,12.78,0,0,1,4.73,2.41l.89-1.39a14.33,14.33,0,0,0-5.55-3.93l.09-3.81A26.25,26.25,0,0,1,42,63.75l.9-1.39a22.87,22.87,0,0,0-7-4.2l.1-3.92A27,27,0,0,1,43.61,57.28Z"/><polygon class="cls-2" points="50.57 37.4 15.74 37.4 15.65 34.84 50.66 34.84 50.57 37.4"/><path class="cls-6" d="M10.79,25.58H56.66C56.66,51.57,10.79,51.64,10.79,25.58Z"/><path class="cls-2" d="M33.72,8.12V35.34H27.83l-6.1-5.94L9.55,26.27C9.8,16.85,19.18,7.73,33.72,8.12Z"/><path class="cls-1" d="M33.72,8.12V35.34h6.11l6.32-5.94,12.62-3.13C58.52,17,49,7.72,33.72,8.12Z"/><polygon class="cls-7" points="26.93 8.67 33.73 12.18 33.73 0 26.93 8.67"/><polygon class="cls-8" points="40.51 8.67 33.73 12.18 33.73 0 40.51 8.67"/><path class="cls-9" d="M20.55,21.72c0,2.23-1.44,4-3.21,4s-3.21-1.8-3.21-4,1.43-4,3.21-4S20.55,19.5,20.55,21.72Z"/><path class="cls-4" d="M19.21,21.72a2.15,2.15,0,0,1-1.87,2.35,2.15,2.15,0,0,1-1.87-2.35,2.15,2.15,0,0,1,1.87-2.35A2.15,2.15,0,0,1,19.21,21.72Z"/><path class="cls-9" d="M52.66,21.72c0,2.23-1.43,4-3.2,4s-3.21-1.8-3.21-4,1.43-4,3.21-4S52.66,19.5,52.66,21.72Z"/><path class="cls-4" d="M51.33,21.72a2.15,2.15,0,0,1-1.87,2.35,2.15,2.15,0,0,1-1.88-2.35,2.15,2.15,0,0,1,1.88-2.35A2.15,2.15,0,0,1,51.33,21.72Z"/><polygon class="cls-4" points="20.95 46.8 20.95 49.07 11.39 47.74 10.64 46.8 20.95 46.8"/><polygon class="cls-1" points="20.95 42.12 20.95 46.8 10.64 46.8 3.79 38.28 20.95 42.12"/><path class="cls-2" d="M14.21,58.26C17.82,52,15.82,46.39,12,42.94,3.68,35.3-.81,37.06,1.58,48.18A12.93,12.93,0,0,0,14.21,58.26Z"/><polygon class="cls-4" points="44.97 46.47 44.97 48.73 54.52 47.41 55.28 46.47 44.97 46.47"/><path class="cls-2" d="M51.71,57.92c-3.61-6.29-1.61-11.87,2.17-15.31,8.36-7.64,12.85-5.88,10.46,5.23A12.91,12.91,0,0,1,51.71,57.92Z"/></g></g></svg>