<svg xmlns="http://www.w3.org/2000/svg" viewBox="0 0 96.41 116"><defs><style>.cls-1{fill:#e37b25;}.cls-2{fill:#52240c;}.cls-3{fill:#b72125;}.cls-4{fill:#941a1d;}.cls-5{fill:#f78d29;}.cls-6{fill:#f99c2b;}.cls-7{fill:#944720;}.cls-8{fill:#b65c26;}.cls-9{fill:#f4c72c;}.cls-10{fill:#ef422f;}.cls-11{fill:#fccb6c;}.cls-12{fill:#49220c;}.cls-13{fill:#230b0e;}.cls-14{fill:#fff;}</style></defs><g id="Layer_2" data-name="Layer 2"><g id="Слой_5" data-name="Слой 5"><polygon class="cls-1" points="24.71 90.57 39.81 105.01 44.5 102.4 35.47 86.57 24.71 90.57 24.71 90.57"/><polygon class="cls-1" points="44.5 116 39.81 116 39.81 102.4 44.5 102.4 44.5 116 44.5 116"/><polygon class="cls-1" points="44.4 112.04 28.57 112.04 28.57 116 44.4 116 44.4 112.04 44.4 112.04"/><path class="cls-2" d="M28.57,112H22.51A3.77,3.77,0,0,0,18.94,116h9.63V112Z"/><polygon class="cls-1" points="35.77 44.89 23.19 53.1 12.66 53.1 12.66 57.04 24.71 57.04 38.76 50.14 35.77 44.89 35.77 44.89"/><path class="cls-3" d="M14.29,56.71V52.82a2.77,2.77,0,0,0-2.75-2.77c-1.08-1.78-6.76-3.65-6.76,0C1.49,50,0,51.75,0,53.94v1.63a3.91,3.91,0,0,0,3.92,3.91c6.66,0,10.37.77,10.37-2.77Z"/><polygon class="cls-4" points="16.96 57.41 14.29 57.41 14.29 52.82 16.96 52.82 16.96 57.41 16.96 57.41"/><path class="cls-1" d="M29.52,65.86c-6.94,0-12.57,6-12.57,13.46s5.63,13.46,12.57,13.46,12.58-6,12.58-13.46S36.47,65.86,29.52,65.86Z"/><path class="cls-5" d="M29.93,28.24S17,46.52,24.09,68.68H42.28s-8.4-17.79.85-40.44c-4.37,0-13.2,0-13.2,0Z"/><path class="cls-6" d="M92.45,103.34c-2.68,2.68-7.08,5.72-10.93,5.59-8.91-.3-8-9.86-13.57-24.32C63.2,72.27,53.2,65.23,45.6,68.9c-3.73,1.8-6.19,5.86-7.15,11l5.83,4c22.43-2.07,13,31.74,36.16,31.74,5.47,0,12-3.33,15-8.38,2.86-4.86-1-5.77-2.94-3.86Z"/><path class="cls-6" d="M34.3,16.62C33.6,15.71,28-2.84,16.84.37,12.07,11.67,28.89,17.65,30.52,19.5l3.78-2.88Z"/><path class="cls-7" d="M33.7,17.07C33.11,16.31,28.4.7,19,3.4c-4,9.51,10.14,14.54,11.52,16.1l3.18-2.43Z"/><path class="cls-6" d="M42,16.62c.7-.91,6.29-19.46,17.46-16.25,4.76,11.3-12,17.28-13.68,19.13L42,16.62Z"/><path class="cls-7" d="M42.6,17.07C43.2,16.31,47.9.7,57.3,3.4c4,9.51-10.14,14.54-11.51,16.1L42.6,17.07Z"/><path class="cls-6" d="M27.63,30.45a18.43,18.43,0,0,0,10.55,10,18.43,18.43,0,0,0,10.55-10s0-17.32-10.63-17.32c-10.31,0-10.47,17.32-10.47,17.32Z"/><path class="cls-8" d="M29.84,27.08a13.17,13.17,0,0,0,8.34,12.79,13.17,13.17,0,0,0,8.34-12.79c0-18.45-16.68-18.81-16.68,0Z"/><path class="cls-5" d="M42,70.26c0,2.26-2.56,4.1-5.71,4.1h0c-3.15,0-5.7-1.84-5.7-4.1V53.7c0-2.27,2.55-4.1,5.7-4.1h0c3.15,0,5.71,1.83,5.71,4.1V70.26Z"/><path class="cls-9" d="M38.76,67.54,18.54,65.41c0,11.89,8.86,21.82,20.7,24.27l-.48-22.14Z"/><polygon class="cls-6" points="41.99 90.57 57.09 105.01 61.78 102.4 52.75 86.57 41.99 90.57 41.99 90.57"/><polygon class="cls-6" points="61.78 116 57.09 116 57.09 102.4 61.78 102.4 61.78 116 61.78 116"/><path class="cls-9" d="M41.82,49.81a4.7,4.7,0,1,1-6.4-1.75,4.69,4.69,0,0,1,6.4,1.75Z"/><polygon class="cls-9" points="36.84 49.59 24.26 57.8 13.73 57.8 13.73 61.74 25.77 61.74 39.82 54.84 36.84 49.59 36.84 49.59"/><polygon class="cls-6" points="61.68 112.04 45.85 112.04 45.85 116 61.68 116 61.68 112.04 61.68 112.04"/><path class="cls-6" d="M44.85,65.86V92.78c-6.94,0-12.58-6-12.58-13.46s5.64-13.46,12.58-13.46Z"/><path class="cls-1" d="M57.44,79.32c0,7.43-5.63,13.46-12.59,13.46V65.86c7,0,12.59,6,12.59,13.46Z"/><path class="cls-10" d="M12.86,64.4a2.77,2.77,0,0,0,2.77-2.77v-3.9A2.77,2.77,0,0,0,12.87,55c-1.07-1.78-6.75-3.65-6.75,0-3.28,0-4.78,1.72-4.78,3.91v1.64A3.91,3.91,0,0,0,5.25,64.4Z"/><path class="cls-8" d="M40.12,40.34a1.36,1.36,0,0,1-1.36,1.36H37.6a1.36,1.36,0,0,1-1.36-1.36v-.72a1.36,1.36,0,0,1,1.36-1.37h1.16a1.36,1.36,0,0,1,1.36,1.37v.72Z"/><path class="cls-11" d="M40.92,32.6h-.8V18.44a1.36,1.36,0,0,0-1.36-1.36H37.6a1.36,1.36,0,0,0-1.36,1.36V32.6h-.81a2.24,2.24,0,0,0-2.23,2.24v3.59a2.24,2.24,0,0,0,2.23,2.24h5.49a2.24,2.24,0,0,0,2.24-2.24V34.84a2.24,2.24,0,0,0-2.24-2.24Z"/><path class="cls-12" d="M36.71,34.1l0,0c-2.36-1.12-2.21,3.46,1.4,3.74h.2C41.9,37.54,42,33,39.69,34.08l0,0a3.33,3.33,0,0,1-2.95,0Z"/><polygon class="cls-3" points="18.3 62.32 15.63 62.32 15.63 57.73 18.3 57.73 18.3 62.32 18.3 62.32"/><path class="cls-13" d="M33,25a1.34,1.34,0,1,1-1.34-1.33A1.33,1.33,0,0,1,33,25Z"/><path class="cls-14" d="M32.37,24.78a.36.36,0,0,1-.71,0,.36.36,0,0,1,.71,0Z"/><path class="cls-13" d="M45.85,25a1.35,1.35,0,1,1-1.35-1.33A1.33,1.33,0,0,1,45.85,25Z"/><path class="cls-14" d="M45.21,24.78a.35.35,0,0,1-.35.35.34.34,0,0,1-.35-.35.35.35,0,0,1,.35-.35.35.35,0,0,1,.35.35Z"/><path class="cls-2" d="M45.85,112H39.79A3.77,3.77,0,0,0,36.22,116h9.63V112Z"/></g></g></svg>