<svg xmlns="http://www.w3.org/2000/svg" viewBox="0 0 84.14 93.91"><defs><style>.cls-1{fill:#7d421a;}.cls-2{fill:#19171c;}.cls-3{fill:#006635;}.cls-4{fill:#004b3f;}.cls-5{fill:#00321a;}.cls-6{fill:#fddd32;}.cls-7{fill:#64696d;}.cls-8{fill:#fff;}</style></defs><g id="Layer_2" data-name="Layer 2"><g id="Слой_5" data-name="Слой 5"><path class="cls-1" d="M20.84,70.39A12.23,12.23,0,0,0,8.34,82.16,2.79,2.79,0,0,1,5,84.82H5a15.68,15.68,0,0,1,26.92-13c-.92.72-1.87,1.41-2.8,2.1a12.2,12.2,0,0,0-8.3-3.54Z"/><path class="cls-1" d="M19.14,57.08A12.23,12.23,0,0,0,3.91,65,2.79,2.79,0,0,1,0,66.69H0a15.69,15.69,0,0,1,29.44-5.21c-1.09.44-2.18.84-3.27,1.26a12.21,12.21,0,0,0-7-5.66Z"/><path class="cls-1" d="M23.37,41.87A17.1,17.1,0,0,1,9.3,20.68,2.33,2.33,0,0,0,7,17.78H5.11a21.93,21.93,0,0,0,33.5,25c-1.08-1.24-2.19-2.43-3.29-3.63a17,17,0,0,1-11.95,2.71Z"/><path class="cls-1" d="M1.66,20.7H7a1.33,1.33,0,0,0,1.33-1.34v-.25A1.32,1.32,0,0,0,7,17.78H1.66A1.33,1.33,0,0,0,.33,19.11v.25A1.34,1.34,0,0,0,1.66,20.7Z"/><path class="cls-1" d="M1.66,25.56H7a1.33,1.33,0,0,0,1.33-1.33V24A1.33,1.33,0,0,0,7,22.64H1.66A1.34,1.34,0,0,0,.33,24v.26a1.34,1.34,0,0,0,1.33,1.33Z"/><path class="cls-1" d="M1.66,30.43H7A1.33,1.33,0,0,0,8.28,29.1v-.26A1.33,1.33,0,0,0,7,27.51H1.66A1.34,1.34,0,0,0,.33,28.84v.26a1.34,1.34,0,0,0,1.33,1.33Z"/><path class="cls-1" d="M63.3,70.39A12.23,12.23,0,0,1,75.8,82.16a2.79,2.79,0,0,0,3.32,2.66h0c2.15-15.13-16.55-24-26.92-13,.92.72,1.86,1.41,2.8,2.1a12.2,12.2,0,0,1,8.3-3.54Z"/><path class="cls-1" d="M65,57.08a12.22,12.22,0,0,1,15.22,8,2.8,2.8,0,0,0,3.92,1.66h0c-2-15.12-22.39-18.67-29.43-5.21,1.08.44,2.17.84,3.26,1.26a12.21,12.21,0,0,1,7-5.66Z"/><path class="cls-1" d="M60.77,41.87A17.1,17.1,0,0,0,74.84,20.68a2.33,2.33,0,0,1,2.26-2.9H79a21.93,21.93,0,0,1-33.5,25c1.08-1.24,2.19-2.43,3.28-3.63a17,17,0,0,0,12,2.71Z"/><path class="cls-1" d="M82.48,20.7H77.19a1.33,1.33,0,0,1-1.33-1.34v-.25a1.32,1.32,0,0,1,1.33-1.33h5.29a1.33,1.33,0,0,1,1.33,1.33v.25a1.34,1.34,0,0,1-1.33,1.34Z"/><path class="cls-1" d="M82.48,25.56H77.19a1.33,1.33,0,0,1-1.33-1.33V24a1.33,1.33,0,0,1,1.33-1.33h5.29A1.34,1.34,0,0,1,83.81,24v.26a1.34,1.34,0,0,1-1.33,1.33Z"/><path class="cls-1" d="M82.48,30.43H77.19a1.33,1.33,0,0,1-1.33-1.33v-.26a1.33,1.33,0,0,1,1.33-1.33h5.29a1.34,1.34,0,0,1,1.33,1.33v.26a1.34,1.34,0,0,1-1.33,1.33Z"/><path class="cls-2" d="M29.4,12.21a9.79,9.79,0,0,1-4.46-6.13,3.09,3.09,0,1,1,1.31,0,8.92,8.92,0,0,0,3.87,5.07A16.72,16.72,0,0,0,40.3,13.34l.11,1.26a17.76,17.76,0,0,1-11-2.39Z"/><path class="cls-2" d="M54,12.21a9.77,9.77,0,0,0,4.47-6.13,3.08,3.08,0,1,0-1.32,0,8.87,8.87,0,0,1-3.86,5.07,16.75,16.75,0,0,1-10.19,2.19L43,14.6a17.73,17.73,0,0,0,11-2.39Z"/><path class="cls-3" d="M61.82,47H21.58V38A18.35,18.35,0,0,1,39.93,19.64h3.55A18.34,18.34,0,0,1,61.82,38v9Z"/><path class="cls-4" d="M61.82,47H21.58V75.57A18.35,18.35,0,0,0,39.93,93.91h3.55A18.34,18.34,0,0,0,61.82,75.57V47Z"/><path class="cls-5" d="M46.2,22.48h-9a4.58,4.58,0,0,1-4.58-4.59V17a4.58,4.58,0,0,1,4.58-4.59h9A4.59,4.59,0,0,1,50.79,17v.88a4.59,4.59,0,0,1-4.59,4.59Z"/><path class="cls-6" d="M48.27,36.76H36.09a3.47,3.47,0,0,1-3.47-3.48v-.67a3.47,3.47,0,0,1,3.47-3.48H48.27a3.47,3.47,0,0,1,3.47,3.48v.67a3.47,3.47,0,0,1-3.47,3.48Z"/><path class="cls-6" d="M25.15,72.45S26.61,89.16,41.7,89.32,57.44,72.45,57.44,72.45q-15.33,19.78-32.29,0Z"/><path class="cls-7" d="M42.13,12.42a2.76,2.76,0,1,0,2.76-2.76,2.76,2.76,0,0,0-2.76,2.76Z"/><path class="cls-8" d="M45.4,11.7a.55.55,0,0,0,.55.55.55.55,0,0,0,.55-.55.54.54,0,0,0-.55-.55.55.55,0,0,0-.55.55Z"/><path class="cls-7" d="M35.77,12.42a2.76,2.76,0,1,0,2.76-2.76,2.76,2.76,0,0,0-2.76,2.76Z"/><path class="cls-8" d="M39,11.7a.56.56,0,1,0,.55-.55.55.55,0,0,0-.55.55Z"/></g></g></svg>