<svg xmlns="http://www.w3.org/2000/svg" viewBox="0 0 84.05 77.06"><defs><style>.cls-1{fill:#191c1f;}.cls-2{fill:#ce2026;}.cls-3{fill:#c78593;}.cls-4{fill:#bfddf4;}.cls-5{fill:#171b1f;}.cls-6{fill:#cfd1d0;}</style></defs><g id="Layer_2" data-name="Layer 2"><g id="Слой_5" data-name="Слой 5"><path class="cls-1" d="M84.05,35.49A35.5,35.5,0,1,1,48.56,0,35.49,35.49,0,0,1,84.05,35.49Z"/><path class="cls-2" d="M83.49,29.74C85.63,45.66,68.05,58.58,48.33,58.2,30,57.85,12.67,48.33,13.4,32.28,14.17,15.07,29.12.05,48.33,0c18.38,0,33,14,35.16,29.74Z"/><path class="cls-1" d="M42.46,77.06h0A2.16,2.16,0,0,1,40.3,74.9V67.39a2.16,2.16,0,0,1,2.16-2.16h0a2.16,2.16,0,0,1,2.16,2.16V74.9a2.16,2.16,0,0,1-2.16,2.16Z"/><path class="cls-1" d="M50.88,77h0a2.17,2.17,0,0,1-2.17-2.16V67.35a2.17,2.17,0,0,1,2.17-2.16h0A2.16,2.16,0,0,1,53,67.35v7.51A2.16,2.16,0,0,1,50.88,77Z"/><path class="cls-1" d="M59.51,77h0a2.16,2.16,0,0,1-2.16-2.16V67.31a2.16,2.16,0,0,1,2.16-2.16h0a2.17,2.17,0,0,1,2.17,2.16v7.51A2.17,2.17,0,0,1,59.51,77Z"/><path class="cls-1" d="M34.81,77h0a2.16,2.16,0,0,1-2.16-2.16V67.35a2.16,2.16,0,0,1,2.16-2.16h0A2.16,2.16,0,0,1,37,67.35v7.51A2.16,2.16,0,0,1,34.81,77Z"/><path class="cls-1" d="M40.62,54.68A15.42,15.42,0,1,1,25.2,39.26,15.43,15.43,0,0,1,40.62,54.68Z"/><path class="cls-3" d="M34.09,51.45A9.43,9.43,0,0,1,16.5,58.14l-.68.26a10.15,10.15,0,0,0,19-7.21l-.68.26Z"/><path class="cls-1" d="M78.13,30.37a6.07,6.07,0,1,1-6.07-6.06,6.07,6.07,0,0,1,6.07,6.06Z"/><path class="cls-1" d="M64.87,16.69a6.07,6.07,0,1,1-6.06-6.06,6.06,6.06,0,0,1,6.06,6.06Z"/><path class="cls-1" d="M45.69,13A6.07,6.07,0,1,1,39.63,7,6.06,6.06,0,0,1,45.69,13Z"/><path class="cls-1" d="M8.09,20.22a4.1,4.1,0,1,0,0,1.72,11.86,11.86,0,0,1,6.73,5.12c2.21,3.29,3.32,8.48,2.9,13.54l1.69.13c.45-5.5-.74-11-3.18-14.61a13,13,0,0,0-8.13-5.9Z"/><path class="cls-1" d="M21.8,23.62a13.73,13.73,0,0,0-5.06-6.7,4.08,4.08,0,1,0-7.61-2.38,4.07,4.07,0,0,0,6.46,3.65,12.34,12.34,0,0,1,4.63,6c1.43,3.69,1.37,9-.15,13.84l1.62.51c1.65-5.27,1.69-10.86.11-15Z"/><path class="cls-1" d="M21.62,41.37a8.86,8.86,0,1,1-8.86-8.86,8.85,8.85,0,0,1,8.86,8.86Z"/><path class="cls-4" d="M20.34,41.37a7.58,7.58,0,1,1-7.58-7.58,7.58,7.58,0,0,1,7.58,7.58Z"/><path class="cls-5" d="M15.7,41.37a2.94,2.94,0,1,1-2.94-2.93,2.94,2.94,0,0,1,2.94,2.93Z"/><path class="cls-6" d="M15.06,40.09a1,1,0,1,1-2,0,1,1,0,0,1,2,0Z"/><path class="cls-1" d="M38.41,41.44a8.87,8.87,0,1,1-8.86-8.86,8.86,8.86,0,0,1,8.86,8.86Z"/><path class="cls-4" d="M37.12,41.44a7.58,7.58,0,1,1-7.57-7.57,7.58,7.58,0,0,1,7.57,7.57Z"/><path class="cls-5" d="M32.48,41.44a2.94,2.94,0,1,1-2.93-2.93,2.93,2.93,0,0,1,2.93,2.93Z"/><path class="cls-6" d="M31.84,40.16a1,1,0,1,1-1-1,1,1,0,0,1,1,1Z"/></g></g></svg>