<svg xmlns="http://www.w3.org/2000/svg" viewBox="0 0 111.07 94.75"><defs><style>.cls-1{fill:#aa7a3f;}.cls-2{fill:#573512;}.cls-3{fill:#bc8c4b;}.cls-4{fill:#bfddf4;}.cls-5{fill:#171b1f;}.cls-6{fill:#cfd1d0;}.cls-7{fill:#191c1f;}</style></defs><g id="Layer_2" data-name="Layer 2"><g id="Слой_5" data-name="Слой 5"><path class="cls-1" d="M100.81,51.05A40.54,40.54,0,1,1,60.28,10.52a40.54,40.54,0,0,1,40.53,40.53Z"/><path class="cls-2" d="M111.07,50l-10.7-4.4,9.31-8.35L98.1,36.47h0l7-8.93-11,1.18,5-11.34L87.91,21.53h0l2.39-10.7-9.14,5.6,0,0L80.86,5.14l-7.5,7.61-.1,0L71.67,2l-6.73,8.8-.18,0L60.31,0,55.63,10.77l-.23,0L47.1,1.35,46.19,12.8l-9.1-7.17,1.15,11.24-.15.1-10.9-5.58L30.75,23l-.21.23-12-1.68,6.59,9a1,1,0,0,0-.1.17l-12.56.55,8.88,8.39C14.58,65,38.69,76.58,60,77c17.81.34,34.09-8.82,38.91-21.66L111.07,50Z"/><path class="cls-3" d="M49.06,67a20.61,20.61,0,1,1-20.61-20.6A20.6,20.6,0,0,1,49.06,67Z"/><path class="cls-2" d="M41.31,64.12l-1,.13A12.58,12.58,0,0,1,20,77.63c-.22.24-.44.47-.67.7a13.55,13.55,0,0,0,22-14.21Z"/><path class="cls-3" d="M23.68,51.76A11.84,11.84,0,1,1,11.84,39.92,11.84,11.84,0,0,1,23.68,51.76Z"/><path class="cls-4" d="M22,51.76A10.13,10.13,0,1,1,11.84,41.63,10.13,10.13,0,0,1,22,51.76Z"/><path class="cls-5" d="M15.76,51.76a3.92,3.92,0,1,1-3.92-3.92,3.91,3.91,0,0,1,3.92,3.92Z"/><path class="cls-6" d="M14.91,50.05a1.36,1.36,0,1,1-1.36-1.36,1.35,1.35,0,0,1,1.36,1.36Z"/><path class="cls-3" d="M46.06,51.6A11.84,11.84,0,1,1,34.22,39.76,11.84,11.84,0,0,1,46.06,51.6Z"/><path class="cls-4" d="M44.35,51.6A10.13,10.13,0,1,1,34.22,41.47,10.14,10.14,0,0,1,44.35,51.6Z"/><path class="cls-5" d="M38.14,51.6a3.92,3.92,0,1,1-3.92-3.92,3.91,3.91,0,0,1,3.92,3.92Z"/><path class="cls-6" d="M37.29,49.89a1.36,1.36,0,1,1-1.36-1.36,1.36,1.36,0,0,1,1.36,1.36Z"/><path class="cls-7" d="M16.3,69.19a7.48,7.48,0,1,1-7.48-7.48,7.48,7.48,0,0,1,7.48,7.48Z"/><path class="cls-3" d="M56.15,94.75H35.48v-3.3a7.74,7.74,0,0,1,7.73-7.73H56.15v11Z"/><path class="cls-3" d="M84.34,94.75H63.67v-3.3a7.73,7.73,0,0,1,7.73-7.73H84.34v11Z"/></g></g></svg>