<svg xmlns="http://www.w3.org/2000/svg" viewBox="0 0 89.04 92.42"><defs><style>.cls-1{fill:#4b011c;}.cls-2{fill:#ee362e;}.cls-3{fill:#fbad4b;}.cls-4{fill:#19171c;}</style></defs><g id="Layer_2" data-name="Layer 2"><g id="Слой_5" data-name="Слой 5"><path class="cls-1" d="M58.28,45.1A15,15,0,0,1,72.59,31a14,14,0,0,1,14.5,13.09l1.11,0A15,15,0,0,0,72.58,29.86,16.14,16.14,0,0,0,57.17,45.14l1.11,0Z"/><path class="cls-1" d="M59.12,60.23A15,15,0,0,1,73.43,46.11,14,14,0,0,1,87.93,59.2l1.11,0A15,15,0,0,0,73.42,45,16.15,16.15,0,0,0,58,60.27l1.11,0Z"/><path class="cls-1" d="M54.92,76.21A15,15,0,0,1,69.23,62.08,14,14,0,0,1,83.72,75.17l1.11,0A15,15,0,0,0,69.22,61,16.13,16.13,0,0,0,53.81,76.25l1.11,0Z"/><path class="cls-1" d="M30.76,45.1A15,15,0,0,0,16.45,31,14,14,0,0,0,2,44.06L.84,44A15,15,0,0,1,16.46,29.86,16.14,16.14,0,0,1,31.87,45.14l-1.11,0Z"/><path class="cls-1" d="M29.91,60.23a15,15,0,0,0-14.3-14.12A14,14,0,0,0,1.11,59.2L0,59.16A15,15,0,0,1,15.62,45,16.15,16.15,0,0,1,31,60.27l-1.12,0Z"/><path class="cls-1" d="M34.12,76.21A15,15,0,0,0,19.81,62.08,14,14,0,0,0,5.32,75.17l-1.12,0A15,15,0,0,1,19.82,61,16.13,16.13,0,0,1,35.23,76.25l-1.11,0Z"/><path class="cls-2" d="M75.58,52.65c0,17.32-14,39.77-31.36,39.77S12.87,70,12.87,52.65a31.36,31.36,0,0,1,62.71,0Z"/><polygon class="cls-3" points="45.06 92.42 43.38 92.42 43.38 21.63 45.06 21.63 45.06 92.42 45.06 92.42"/><path class="cls-3" d="M57.82,13.59A13.6,13.6,0,1,1,44.22,0a13.59,13.59,0,0,1,13.6,13.59Z"/><path class="cls-4" d="M37.08,76.09a4.91,4.91,0,1,1-4.91-4.91,4.9,4.9,0,0,1,4.91,4.91Z"/><path class="cls-4" d="M27.27,56.19a4.91,4.91,0,1,1-4.9-4.9,4.91,4.91,0,0,1,4.9,4.9Z"/><path class="cls-4" d="M35.54,37.69a4.91,4.91,0,1,1-4.91-4.9,4.91,4.91,0,0,1,4.91,4.9Z"/><path class="cls-4" d="M51.93,76.09a4.91,4.91,0,1,0,4.91-4.91,4.9,4.9,0,0,0-4.91,4.91Z"/><path class="cls-4" d="M61.74,56.19a4.91,4.91,0,1,0,4.91-4.9,4.91,4.91,0,0,0-4.91,4.9Z"/><path class="cls-4" d="M53.47,37.69a4.91,4.91,0,1,0,4.91-4.9,4.91,4.91,0,0,0-4.91,4.9Z"/><path class="cls-4" d="M57.8,13.3c-7,2.06-13.45-2.92-12.76-10.68-.27,0-.54,0-.82,0l-.35,0c.21,7.86-6.68,12.06-13.18,9.84,0,.37-.06.74-.06,1.11a13.6,13.6,0,0,0,27.19,0c0-.1,0-.19,0-.29Z"/><path class="cls-4" d="M39.48,12.75C36.57,8.51,32.39,5.15,28.56,4a12.5,12.5,0,0,0-7.7-.1s0,.08,0,.12c-.17-.74-.33-1.49-.47-2.23a2.57,2.57,0,0,1,.19.41,13.88,13.88,0,0,1,8.49.16c4.25,1.3,8.67,4.83,11.83,9.44l-1.41,1Z"/><path class="cls-4" d="M49.53,12.75C52.44,8.51,56.62,5.15,60.45,4a12.5,12.5,0,0,1,7.7-.1s0,.08,0,.12c.17-.74.33-1.49.47-2.23a3.89,3.89,0,0,0-.19.41A13.88,13.88,0,0,0,60,2.34c-4.25,1.3-8.67,4.83-11.83,9.44l1.41,1Z"/><path class="cls-4" d="M36.45,4.48a1.06,1.06,0,1,0,1.06-1.06,1.06,1.06,0,0,0-1.06,1.06Z"/><path class="cls-4" d="M49.9,4.48A1.07,1.07,0,1,0,51,3.42,1.07,1.07,0,0,0,49.9,4.48Z"/></g></g></svg>