<svg xmlns="http://www.w3.org/2000/svg" viewBox="0 0 80.73 114.85"><defs><style>.cls-1{fill:#64696d;}.cls-2{fill:#fcef9a;}.cls-3{fill:#171b1f;}.cls-4{fill:#cfd1d0;}.cls-5{fill:#393b3f;}.cls-6{fill:#d278b1;}.cls-7{fill:#898e91;}.cls-8{fill:#505457;}.cls-9{fill:#9ba0a3;}</style></defs><g id="Layer_2" data-name="Layer 2"><g id="Слой_5" data-name="Слой 5"><path class="cls-1" d="M80.71,104.05a11.33,11.33,0,0,1-8.26,10.69c-2.92.88-4.24-3.73-1.29-4.63a6.49,6.49,0,0,0,4.74-6.06c.15-3.75-2.73-7.74-8.8-7.75l-44.85,0c-.08-1.76-.15-3.52-.22-5.28l45,0c9.17-.57,14,6.4,13.69,13Z"/><path class="cls-1" d="M21.87,12.55,21.82,0S8.21,4.48,10.1,17.4l11.77-4.85Z"/><path class="cls-1" d="M32.58,12.55,32.63,0S46.24,4.48,44.35,17.4L32.58,12.55Z"/><path class="cls-1" d="M48.21,30.67a20.32,20.32,0,0,0-40.62,0H4.3c.2,11.75,10.55,21.22,23.3,21.22s23.09-9.47,23.29-21.22Z"/><path class="cls-1" d="M28,22.15a9.67,9.67,0,1,1-9.67-9.67A9.67,9.67,0,0,1,28,22.15Z"/><path class="cls-2" d="M26.59,22.15a8.27,8.27,0,1,1-8.27-8.27,8.26,8.26,0,0,1,8.27,8.27Z"/><path class="cls-3" d="M21.53,22.15a3.21,3.21,0,1,1-3.21-3.21,3.21,3.21,0,0,1,3.21,3.21Z"/><path class="cls-4" d="M20.83,20.75a1.11,1.11,0,1,1-1.11-1.11,1.11,1.11,0,0,1,1.11,1.11Z"/><path class="cls-1" d="M46.32,22.15a9.67,9.67,0,1,1-9.67-9.67,9.67,9.67,0,0,1,9.67,9.67Z"/><path class="cls-2" d="M44.92,22.15a8.27,8.27,0,1,1-8.27-8.27,8.26,8.26,0,0,1,8.27,8.27Z"/><path class="cls-3" d="M39.86,22.15a3.21,3.21,0,1,1-3.21-3.21,3.21,3.21,0,0,1,3.21,3.21Z"/><path class="cls-4" d="M39.16,20.75a1.11,1.11,0,1,1-1.11-1.11,1.11,1.11,0,0,1,1.11,1.11Z"/><path class="cls-5" d="M26.2,35.8a5.88,5.88,0,0,1-11.57,0H13.42a7.08,7.08,0,0,0,14,0Z"/><path class="cls-1" d="M55.64,107.77c-.44-4.15-5-7.52-11-8.22a30.06,30.06,0,0,0,4.44-16.46c0-16.17-13.92-32.33-21.15-32.56S6.75,66.92,6.75,83.09a30,30,0,0,0,4.44,16.45c-6.06.66-10.74,4-11.19,8.23Z"/><path class="cls-6" d="M30.43,32.34a3.28,3.28,0,1,1-3.28-3.28,3.28,3.28,0,0,1,3.28,3.28Z"/><path class="cls-5" d="M39.54,35.8A5.88,5.88,0,0,1,28,35.8H26.76a7.07,7.07,0,0,0,14,0Z"/><path class="cls-7" d="M42.5,82.07c0,11.17-6.85,18-14.6,18s-14.6-6.79-14.6-18S22.87,59.44,27.9,59.6,42.5,70.91,42.5,82.07Z"/><path class="cls-8" d="M22.65,103.94V61.37a3.89,3.89,0,1,0-7.78,0v42.39a9,9,0,0,0-5.29,7.55h18a9,9,0,0,0-4.88-7.37Z"/><path class="cls-8" d="M39.84,103.94V61.37a3.89,3.89,0,1,0-7.78,0v42.39a9,9,0,0,0-5.29,7.55h18a9,9,0,0,0-4.88-7.37Z"/><path class="cls-6" d="M19.7,10.62l0-6.26S12.88,6.59,13.82,13l5.88-2.42Z"/><path class="cls-6" d="M35,10.62l0-6.26S41.84,6.59,40.89,13L35,10.62Z"/><path class="cls-9" d="M80.71,104.05a11.33,11.33,0,0,1-8.26,10.69c-2.92.88-4.24-3.73-1.29-4.63a6.49,6.49,0,0,0,4.74-6.06Z"/></g></g></svg>