<svg xmlns="http://www.w3.org/2000/svg" viewBox="0 0 91.46 98.11"><defs><style>.cls-1{fill:#fcb330;}.cls-2{fill:#f26537;}.cls-3{fill:#171b1f;}.cls-4{fill:#fab52d;}.cls-5{fill:#bfddf4;}.cls-6{fill:#cfd1d0;}</style></defs><g id="Layer_2" data-name="Layer 2"><g id="Слой_5" data-name="Слой 5"><path class="cls-1" d="M35.16,95.63l4.55-3.36c1.71.8,7.37.23,7.08-10.54A99.41,99.41,0,0,0,45.3,68.94c-2-12.23-2.92-20.54,2.2-24.51L51,48.89c-3.1,2.4-.84,14.47-.08,19.16,1.71,10.73,2.83,19.29-1,25.14-4.45,6.69-12.94,5.57-14.66,2.44Z"/><path class="cls-2" d="M35.17,95.5l2.42-5.1c1.7.81,7.37.23,7.07-10.53-.37-13.62-7.16-31.21.72-37.31L48.83,47c-1.09.85-1.61,2.77-1.59,5.71,0,6.49,2.88,20.44,3.06,27,.41,15.19-9.57,18.42-15.13,15.79Z"/><path class="cls-1" d="M90.45,44.22c-1.7-3.69-5.25-5.87-9.76-6l-.12,4.7c2.68.07,4.68,1.22,5.61,3.25C89,52.42,80.29,58,74,55.47c-5.64-2.25-6.51-7-10.06-13.2C62.62,43.18,61.29,44,60,45c3.1,5.46,4.64,11.87,12.2,14.88,10.23,4.07,22.92-5.4,18.22-15.62Z"/><path class="cls-2" d="M87.41,42.47a8.21,8.21,0,0,0-7-4l.13,4.69c2.23,0,4.81,3.55,3.33,6.67-1.71,3.63-6.42,4.5-9.74,3-4.74-2.09-6.38-8.48-9.22-13.51-.3.26-.62.5-.92.76a17.89,17.89,0,0,1-2.6,2.62c.45.86.88,1.78,1.33,2.74,2.07,4.43,4.43,9.45,9.52,11.69,5.32,2.34,12.9,1,15.88-5.33a9.53,9.53,0,0,0-.74-9.35Z"/><path class="cls-1" d="M81.33,73.71c.4-4-1.57-7.72-5.41-10.09l-2.47,4c5.19,3.22,3.51,9-.75,10.63a10.42,10.42,0,0,1-11.28-3.13c-3.75-4.81-2.1-9.48-2-16.18.08-7.08-1-14.55-8.33-13.33l.78,4.63c1.61-.27,2.95.12,2.85,8.64-.07,6.5-2,12.73,3,19.13,6.78,8.69,22.5,6.91,23.61-4.29Z"/><path class="cls-2" d="M79.59,70.67a8.24,8.24,0,0,0-4-7L73.34,67.8a3.71,3.71,0,0,1,1.56,3.1c.29,6-8.11,7.39-12,2-3.06-4.23-1.19-10.66-1.14-16.46.1-10.86-5-13.9-9.74-13.1L52.81,48c3.61-.61,4.3,4.79,4.26,8.42,0,5.71-2.24,13.36,2,19.26,6.67,9.2,21,5.66,20.48-5Z"/><path class="cls-1" d="M26.89,39.54c-.53,1.38-.95,2.77-1.34,4-1.79,5.6-1.73,10.8-6.83,14.21-5.67,3.79-15.39.17-13.89-6.54C5.32,49,7,47.48,9.64,46.85l-1.1-4.56C4.15,43.34,1.13,46.22.25,50.18A10.89,10.89,0,0,0,5.69,62a15.21,15.21,0,0,0,15.64-.3C26.72,58,28,53,29.07,48.51c.3-1.24.59-2.4.95-3.55.14-.43.32-1,.54-1.68C29.33,42,28,40.85,26.89,39.54Z"/><path class="cls-2" d="M25.84,36a26.72,26.72,0,0,0-1.63,4c-1.76,5.53-2,12.21-6.24,15.27-5.35,3.86-12.9-.07-10.74-5.7a3.71,3.71,0,0,1,2.46-2.45l-.87-4.62a8.21,8.21,0,0,0-6,5.39C-1,57.77,11.44,65.72,20.72,59c6.2-4.47,6.18-12.81,8.31-18.62A27.19,27.19,0,0,1,25.84,36Z"/><path class="cls-1" d="M15.55,78.19c-1.23-3.86-.07-7.87,3.18-11L22,70.58c-4.42,4.25-1.51,9.57,2.95,10.23,3.75.56,14.82-1.52,10.16-17.27-2.34-7.88-3.22-13.54-.73-16.79a6.19,6.19,0,0,1,4.92-2.37l.21,4.69c-1,0-1.3.4-1.4.53-1.54,2,.78,10.17,1.5,12.61,1.31,4.41,2.79,9.41-.05,15.25C34.75,87.31,19,89,15.55,78.19Z"/><path class="cls-2" d="M16.62,74.86a8.21,8.21,0,0,1,2.44-7.67l3.07,3.55c-1.69,1.46-1.17,5.86,2,7.18,3.71,1.52,7.77-1,9.24-4.32,2.12-4.78-1-10.67-2.32-16.34-.68-3-1.41-8.63,1.24-12.1s9.46-4.59,3.73,2.85C31.68,53.72,42,65.8,37.7,75.5,33,86.06,18.33,85.31,16.62,74.86Z"/><path class="cls-2" d="M71.8,25.53A25.53,25.53,0,1,1,46.27,0,25.53,25.53,0,0,1,71.8,25.53Z"/><path class="cls-3" d="M59,24.62c1.85,4.14-.15,9.27-4.67,11.67s-9.89,1.19-12.28-2.66l-.66.35c2.57,4.17,8.37,5.49,13.25,2.9s7-8.14,5-12.6l-.65.34Z"/><path class="cls-4" d="M44.09,15.19A8.12,8.12,0,1,1,36,7.08a8.12,8.12,0,0,1,8.12,8.11Z"/><path class="cls-5" d="M42.91,15.19A6.94,6.94,0,1,1,36,8.25a6.94,6.94,0,0,1,6.94,6.94Z"/><path class="cls-3" d="M38.66,15.19A2.69,2.69,0,1,1,36,12.5a2.69,2.69,0,0,1,2.69,2.69Z"/><path class="cls-6" d="M38.07,14a.93.93,0,1,1-.93-.93.93.93,0,0,1,.93.93Z"/><path class="cls-4" d="M60,15.19a8.12,8.12,0,1,1-8.12-8.11A8.12,8.12,0,0,1,60,15.19Z"/><path class="cls-5" d="M58.81,15.19a6.95,6.95,0,1,1-6.94-6.94,6.95,6.95,0,0,1,6.94,6.94Z"/><path class="cls-3" d="M54.56,15.19a2.69,2.69,0,1,1-2.69-2.69,2.69,2.69,0,0,1,2.69,2.69Z"/><path class="cls-6" d="M54,14a.93.93,0,1,1-.93-.93A.93.93,0,0,1,54,14Z"/><path class="cls-1" d="M29.17,28.38a2.53,2.53,0,1,1-2.53-2.53,2.52,2.52,0,0,1,2.53,2.53Z"/><path class="cls-1" d="M37.16,29.79a2.53,2.53,0,1,1-2.53-2.53,2.52,2.52,0,0,1,2.53,2.53Z"/><path class="cls-1" d="M31.87,35.07a2.53,2.53,0,1,1-2.53-2.52,2.53,2.53,0,0,1,2.53,2.52Z"/></g></g></svg>