<svg xmlns="http://www.w3.org/2000/svg" viewBox="0 0 93.43 92.01"><defs><style>.cls-1{fill:#52c2bc;}.cls-2{fill:#fab52d;}.cls-3{fill:#171b1f;}.cls-4{fill:#bfddf4;}.cls-5{fill:#cfd1d0;}.cls-6{fill:#11a7bb;}</style></defs><g id="Layer_2" data-name="Layer 2"><g id="Слой_5" data-name="Слой 5"><path class="cls-1" d="M46.85,92l1.35-3a7.75,7.75,0,0,0-3.91-10.24l-7.5-3.36S34.57,86.81,46.85,92Z"/><path class="cls-1" d="M93.43,26.68V31A10.23,10.23,0,0,1,83.19,41.26H72.34s3.48-14.94,21.09-14.58Z"/><path class="cls-1" d="M93.43,57.42V53.08A10.23,10.23,0,0,0,83.19,42.84H72.34s3.48,14.94,21.09,14.58Z"/><path class="cls-1" d="M68.67,16.84A16.85,16.85,0,1,1,51.83,0,16.84,16.84,0,0,1,68.67,16.84Z"/><path class="cls-2" d="M72.8,42.22A33.6,33.6,0,1,1,39.21,8.62,33.59,33.59,0,0,1,72.8,42.22Z"/><path class="cls-3" d="M27.59,43.73a9,9,0,0,1-15.88,8.44l-.61.33a9.7,9.7,0,0,0,17.1-9.09l-.61.32Z"/><path class="cls-2" d="M16.93,33.28a8.47,8.47,0,1,1-8.46-8.47,8.46,8.46,0,0,1,8.46,8.47Z"/><path class="cls-4" d="M15.71,33.28A7.25,7.25,0,1,1,8.47,26a7.24,7.24,0,0,1,7.24,7.24Z"/><path class="cls-3" d="M11.27,33.28a2.81,2.81,0,1,1-2.8-2.81,2.8,2.8,0,0,1,2.8,2.81Z"/><path class="cls-5" d="M10.66,32.05a1,1,0,1,1-1-1,1,1,0,0,1,1,1Z"/><path class="cls-2" d="M32.63,33.14a8.47,8.47,0,1,1-8.47-8.46,8.47,8.47,0,0,1,8.47,8.46Z"/><path class="cls-4" d="M31.4,33.14a7.24,7.24,0,1,1-7.24-7.24,7.25,7.25,0,0,1,7.24,7.24Z"/><path class="cls-3" d="M27,33.14a2.81,2.81,0,1,1-2.81-2.8A2.81,2.81,0,0,1,27,33.14Z"/><path class="cls-5" d="M26.36,31.92a1,1,0,1,1-1-1,1,1,0,0,1,1,1Z"/><path class="cls-6" d="M37.14,8.69c7.48,12.19,8.5,29.17,6.67,42.4a97.9,97.9,0,0,1-7,24.63,33.59,33.59,0,1,0,.3-67Z"/><path class="cls-2" d="M52.91,44.33a6.63,6.63,0,0,0,3.6-6.16c6.93.24,7,10.78-.14,10.88a6.37,6.37,0,0,0-3.46-4.72Zm0-12.21a6.62,6.62,0,0,0,3.63-6.18c7,.23,6.93,10.82-.13,10.92a6.39,6.39,0,0,0-3.5-4.74Zm6.51,17.6c4.81-2.31,4.8-9.94-.05-12.21,5.7-2.67,4.72-12.76-2.94-12.86a6.36,6.36,0,0,0-6.59-5.4h-.22v1.29h.22c7.24,0,7.24,10.94,0,10.94l-.22,0v1.32h.22c7.2,0,7.28,10.89,0,10.89h-.22V45l.22,0c7.4,0,7.16,11.19-.22,10.88,0,.39-.13,1.3.22,1.3a6.46,6.46,0,0,0,6.69-6.78c7.16.22,6.86,11.17-.45,10.87,0,.39-.13,1.3.23,1.3,7.71,0,8.81-10.13,3.11-12.85Z"/></g></g></svg>