<svg xmlns="http://www.w3.org/2000/svg" viewBox="0 0 118.76 110.42"><defs><style>.cls-1{fill:#4b011c;}.cls-2{fill:#618175;}.cls-3{fill:#435c53;}.cls-4{fill:#5cc7d1;}.cls-5{fill:#9dd8d6;}.cls-6{fill:#cf272a;}.cls-7{fill:#a7b2b6;}.cls-8{fill:#fff;}</style></defs><g id="Layer_2" data-name="Layer 2"><g id="Слой_5" data-name="Слой 5"><path class="cls-1" d="M60.29,98.08A14.52,14.52,0,0,1,74.15,84.4a13.53,13.53,0,0,1,14,12.67l1.07,0A14.55,14.55,0,0,0,74.14,83.32a15.64,15.64,0,0,0-14.93,14.8l1.08,0Z"/><path class="cls-1" d="M58.77,98.08A14.52,14.52,0,0,0,44.91,84.4a13.51,13.51,0,0,0-14,12.67L29.8,97A14.56,14.56,0,0,1,44.92,83.32a15.64,15.64,0,0,1,14.93,14.8l-1.08,0Z"/><path class="cls-2" d="M59.11,43.56A14.16,14.16,0,1,0,45,29.4,14.16,14.16,0,0,0,59.11,43.56Z"/><path class="cls-3" d="M59.11,110.42c4.21,0,21.27-17,21.27-38.07S70.86,34.27,59.11,34.27s-21.28,17-21.28,38.08,16.67,38.07,21.28,38.07Z"/><path class="cls-4" d="M90.66,62.46a21.17,21.17,0,0,1-9-6.19L67.07,39.21s28.3-14.95,51.69,13.47l-6.89,5.91a21.36,21.36,0,0,1-21.21,3.87Z"/><path class="cls-5" d="M97.54,83.22H88.47a21.4,21.4,0,0,1-21.4-21.4V39.16s31.22,7.27,30.47,44.06Z"/><path class="cls-2" d="M61.31,18.79H56.9c2.21-7.84.82-13.24-2-18.79h8.33c-2.28,6-4.16,10.62-2,18.79Z"/><path class="cls-6" d="M57.68,15.31a14,14,0,0,0-12,9.55s11.58,1.19,12-9.55Z"/><path class="cls-6" d="M72.5,24.86s-11.59,1.19-12-9.55a13.88,13.88,0,0,1,12,9.55Z"/><path class="cls-2" d="M67.25,26.19C71.17,20.46,76.82,15.92,82,14.33a16.9,16.9,0,0,1,10.41-.13c0,.06.47-2.5.39-2.31a18.83,18.83,0,0,0-11.48.23c-5.74,1.76-11.72,6.53-16,12.76l1.91,1.31Z"/><path class="cls-2" d="M51.72,26.19C47.8,20.46,42.14,15.92,37,14.33a16.93,16.93,0,0,0-10.42-.13c0,.06-.46-2.5-.38-2.31a18.83,18.83,0,0,1,11.48.23c5.74,1.76,11.71,6.53,16,12.76l-1.91,1.31Z"/><path class="cls-7" d="M59.11,95.31c1.18,0,6-4.77,6-10.66S62.4,74,59.11,74s-6,4.78-6,10.67,4.67,10.66,6,10.66Z"/><path class="cls-8" d="M51.12,18.79a1.14,1.14,0,1,0,1.14-1.14,1.14,1.14,0,0,0-1.14,1.14Z"/><path class="cls-8" d="M64.54,18.79a1.13,1.13,0,1,0,1.13-1.14,1.14,1.14,0,0,0-1.13,1.14Z"/><path class="cls-4" d="M28.1,62.68a21.23,21.23,0,0,0,9-6.19L51.69,39.44S23.38,24.49,0,52.9l6.89,5.91A21.36,21.36,0,0,0,28.1,62.68Z"/><path class="cls-5" d="M21.22,83.39h9.07A21.39,21.39,0,0,0,51.69,62V39.34S20.47,46.6,21.22,83.39Z"/></g></g></svg>