<svg xmlns="http://www.w3.org/2000/svg" viewBox="0 0 112.92 77.22"><defs><style>.cls-1{fill:#d25e5a;}.cls-2{fill:#e97f71;}.cls-3{fill:#f69284;}.cls-4{fill:#9b4d31;}.cls-5{fill:#bfddf4;}.cls-6{fill:#171b1f;}.cls-7{fill:#cfd1d0;}.cls-8{fill:#95363a;}</style></defs><g id="Layer_2" data-name="Layer 2"><g id="Слой_5" data-name="Слой 5"><path class="cls-1" d="M16.68,18.5,16.62,5.94S3,10.42,4.91,23.34L16.68,18.5Z"/><path class="cls-2" d="M100.73,34.94A34.94,34.94,0,1,1,65.79,0a34.94,34.94,0,0,1,34.94,34.94Z"/><path class="cls-1" d="M31.4,18.5l.06-12.56s13.61,4.48,11.71,17.4L31.4,18.5Z"/><path class="cls-2" d="M102.25,31.93a4.49,4.49,0,0,1,5.67-6.29l-.84,2a2.33,2.33,0,0,0-3,3.23c1.32,2.3,5.16.93,6.2-1.08,1.92-3.72-2.77-8.85-7.24-7.25a5.64,5.64,0,0,0-3.53,4.37l-2.11-.41a7.76,7.76,0,0,1,4.91-6c6.27-2.26,12.72,4.75,9.89,10.26-1.77,3.42-7.72,5.11-10,1.16Z"/><path class="cls-2" d="M60.91,65.15v8.77a3.26,3.26,0,1,1-6.52,0V65.15a3.32,3.32,0,0,1,3.25-3.38,3.21,3.21,0,0,1,2.31,1,3.46,3.46,0,0,1,1,2.39Z"/><path class="cls-2" d="M76.9,65.15v8.77a3.27,3.27,0,1,1-6.53,0V65.15a3.33,3.33,0,0,1,3.27-3.38,3.19,3.19,0,0,1,2.3,1,3.46,3.46,0,0,1,1,2.39Z"/><path class="cls-2" d="M85.39,65.18v8.74a3.26,3.26,0,1,1-6.52,0V65.18a3.32,3.32,0,0,1,3.26-3.38,3.19,3.19,0,0,1,2.31,1,3.48,3.48,0,0,1,1,2.39Z"/><path class="cls-2" d="M52.66,65.15v8.77a3.26,3.26,0,1,1-6.51,0V65.15a3.32,3.32,0,0,1,3.25-3.38,3.23,3.23,0,0,1,2.31,1,3.45,3.45,0,0,1,.95,2.39Z"/><path class="cls-3" d="M49.46,39.41a24,24,0,1,1-24-24,24,24,0,0,1,24,24Z"/><path class="cls-4" d="M33.6,41.19A9.84,9.84,0,0,1,20.05,55.41l-.53.55A10.6,10.6,0,0,0,34.13,40.64l-.53.55Z"/><path class="cls-3" d="M18.5,27.82a9.25,9.25,0,1,1-9.25-9.25,9.25,9.25,0,0,1,9.25,9.25Z"/><path class="cls-5" d="M17.16,27.82a7.91,7.91,0,1,1-7.91-7.91,7.92,7.92,0,0,1,7.91,7.91Z"/><path class="cls-6" d="M12.32,27.82a3.07,3.07,0,1,1-3.07-3.06,3.07,3.07,0,0,1,3.07,3.06Z"/><path class="cls-7" d="M11.65,26.49a1.06,1.06,0,1,1-1.06-1.06,1.06,1.06,0,0,1,1.06,1.06Z"/><path class="cls-3" d="M36.63,27.82a9.25,9.25,0,1,1-9.25-9.25,9.25,9.25,0,0,1,9.25,9.25Z"/><path class="cls-5" d="M35.29,27.82a7.91,7.91,0,1,1-7.91-7.91,7.92,7.92,0,0,1,7.91,7.91Z"/><path class="cls-6" d="M30.44,27.82a3.07,3.07,0,1,1-3.06-3.06,3.06,3.06,0,0,1,3.06,3.06Z"/><path class="cls-7" d="M29.78,26.49a1.06,1.06,0,1,1-1.06-1.06,1.06,1.06,0,0,1,1.06,1.06Z"/><path class="cls-6" d="M46.15,73.92h6.51a3.26,3.26,0,1,1-6.51,0Z"/><path class="cls-6" d="M54.39,73.92h6.52a3.26,3.26,0,1,1-6.52,0Z"/><path class="cls-6" d="M70.37,73.92H76.9a3.27,3.27,0,1,1-6.53,0Z"/><path class="cls-6" d="M85.39,73.92a3.26,3.26,0,1,1-6.52,0Z"/><path class="cls-1" d="M19,45.34A8.37,8.37,0,1,1,10.6,37,8.37,8.37,0,0,1,19,45.34Z"/><path class="cls-8" d="M7.69,44.43c0,1.72-.75,3.12-1.66,3.12s-1.65-1.4-1.65-3.12S5.12,41.31,6,41.31s1.66,1.4,1.66,3.12Z"/><path class="cls-8" d="M13.31,44.43c0,1.72-.74,3.12-1.66,3.12S10,46.15,10,44.43s.74-3.12,1.65-3.12,1.66,1.4,1.66,3.12Z"/></g></g></svg>