<svg xmlns="http://www.w3.org/2000/svg" viewBox="0 0 98.99 106.81"><defs><style>.cls-1{fill:#19171c;}.cls-2{fill:#fab52d;}.cls-3{fill:#11a7bb;}.cls-4{fill:#52c2bc;}.cls-5{fill:#64696d;}.cls-6{fill:#fff;}</style></defs><g id="Layer_2" data-name="Layer 2"><g id="Слой_5" data-name="Слой 5"><path class="cls-1" d="M56,12.58C59.3,7.8,64,4,68.34,2.69A14.12,14.12,0,0,1,77,2.59a.51.51,0,0,1,0,.13c.18-.84.36-1.68.53-2.52a3.88,3.88,0,0,0-.22.46,15.66,15.66,0,0,0-9.58.19C63,2.31,58,6.29,54.44,11.49L56,12.58Z"/><path class="cls-2" d="M48.63,99.37c11.25,0,20.18-12.14,20.18-26.74S60,45.91,48.63,45.91s-20.18,12-20.18,26.72,9,26.74,20.18,26.74Z"/><path class="cls-1" d="M33.78,54.53h29.7c-3.69-5.3-9-8.62-14.85-8.62s-11.16,3.32-14.85,8.62Z"/><path class="cls-1" d="M28.81,77.66H68.45a34.33,34.33,0,0,0,.36-5,34.74,34.74,0,0,0-.64-6.69H29.09a34.74,34.74,0,0,0-.64,6.69,34.33,34.33,0,0,0,.36,5Z"/><path class="cls-1" d="M48.63,99.37c6.24,0,11.81-3.75,15.51-9.64h-31c3.7,5.89,9.28,9.64,15.51,9.64Z"/><path class="cls-3" d="M23.43,43.25a17.7,17.7,0,0,0,7.48-5.17l12.2-14.22S19.5,11.39,0,35.09L5.74,40a17.86,17.86,0,0,0,17.69,3.23Z"/><path class="cls-1" d="M43.09,12.58C39.81,7.8,35.1,4,30.78,2.69a14.12,14.12,0,0,0-8.68-.1.51.51,0,0,0,0,.13C21.9,1.88,21.72,1,21.55.2a3.88,3.88,0,0,1,.22.46,15.66,15.66,0,0,1,9.58.19c4.78,1.46,9.77,5.44,13.33,10.64l-1.59,1.09Z"/><path class="cls-2" d="M49.25,26.81a9.1,9.1,0,1,0-9.1-9.1,9.1,9.1,0,0,0,9.1,9.1Z"/><polygon class="cls-1" points="45.89 98.83 48.74 106.81 51.59 98.58 45.89 98.83 45.89 98.83"/><path class="cls-2" d="M49.25,51.09A14.44,14.44,0,0,0,63.48,36.44a14.24,14.24,0,1,0-28.47,0A14.45,14.45,0,0,0,49.25,51.09Z"/><path class="cls-4" d="M16.94,60.15h7.57A17.85,17.85,0,0,0,42.36,42.3V23.4s-26,6.06-25.42,36.75Z"/><path class="cls-3" d="M75.56,42.83a17.59,17.59,0,0,1-7.47-5.16L55.89,23.44S79.49,11,99,34.67L93.25,39.6a17.81,17.81,0,0,1-17.69,3.23Z"/><path class="cls-4" d="M81.3,60.15H73.73A17.85,17.85,0,0,1,55.89,42.3V23.4s26,6.06,25.41,36.75Z"/><path class="cls-5" d="M49.6,12.58a3.84,3.84,0,1,0,3.84-3.84,3.84,3.84,0,0,0-3.84,3.84Z"/><path class="cls-6" d="M54.15,11.57a.77.77,0,1,0,.77-.76.76.76,0,0,0-.77.76Z"/><path class="cls-5" d="M40.75,12.58a3.84,3.84,0,1,0,3.84-3.84,3.84,3.84,0,0,0-3.84,3.84Z"/><path class="cls-6" d="M45.3,11.57a.77.77,0,1,0,.77-.76.76.76,0,0,0-.77.76Z"/></g></g></svg>