<svg xmlns="http://www.w3.org/2000/svg" viewBox="0 0 97.27 95.63"><defs><style>.cls-1{fill:#6b2911;}.cls-2{fill:#472414;}.cls-3{fill:#d68d3f;}.cls-4{fill:#fcb95b;}.cls-5{fill:#e1e3de;}.cls-6{fill:#0c1f26;}</style></defs><g id="Layer_2" data-name="Layer 2"><g id="Слой_5" data-name="Слой 5"><path class="cls-1" d="M29.26,88.88H5.05c-3.82,0-5,2.86-5,6.75H34.31c0-4.89-2.11-6.75-5.05-6.75Z"/><path class="cls-2" d="M44.3,41.48c-4.78,20.41-2.84,15-17.68,27-8.68,7-8.08,27.2,4.54,27.2H72.45L82.83,41.48Z"/><path class="cls-3" d="M84,41.48H44.3L53.58,88.6h-1.7a3.52,3.52,0,0,0,0,7h8.37v-24H68v24h8.38a3.52,3.52,0,0,0,0-7H74.66L84,41.48Z"/><path class="cls-4" d="M34,88.6V78.86a4.81,4.81,0,0,0-4.61-5h-7.6a4.8,4.8,0,0,0-4.61,5V90.65a4.8,4.8,0,0,0,4.61,5H35.55a3.38,3.38,0,0,0,3.25-3.51c0-3.85-3.72-3.52-4.82-3.52Z"/><path class="cls-1" d="M46,5.63s-17.82-5-17.6,4.6,0,20.12,0,20.12S25.79,35,31.54,34.9s14.5,0,14.5,0V5.63Z"/><path class="cls-1" d="M79.07,5.63s17.82-5,17.59,4.6,0,20.12,0,20.12S99.31,35,93.57,34.9s-14.5,0-14.5,0V5.63Z"/><path class="cls-2" d="M86.49,29.13,81.32,12.52c0-1,.4-3.65-1-5.31C77.79,3,70.82,0,62.61,0S47.39,3,44.84,7.22c-1.34,1.65-1,4.33-1,5.3L38.72,29.13c-2.34,7.5,4.23,17.14,9.69,17.14H76.8c5.47,0,12-9.63,9.69-17.14Z"/><path class="cls-1" d="M83.9,41.48c-2,2.83-4.68,4.79-7.15,4.79H48.36c-2.46,0-5.15-2-7.15-4.8,2.87-9.71,11.33-16.73,21.34-16.73S81,31.77,83.9,41.48Z"/><path class="cls-5" d="M78,24.29a2.36,2.36,0,1,1-2.36-2.48A2.42,2.42,0,0,1,78,24.29Z"/><path class="cls-2" d="M77.42,24.74a1.79,1.79,0,1,1-1.79-1.87,1.83,1.83,0,0,1,1.79,1.87Z"/><path class="cls-5" d="M53.16,24.29a2.36,2.36,0,1,1-2.36-2.48,2.42,2.42,0,0,1,2.36,2.48Z"/><path class="cls-2" d="M52.59,24.74a1.79,1.79,0,1,1-1.79-1.87,1.83,1.83,0,0,1,1.79,1.87Z"/><path class="cls-4" d="M68.64,27.12V11.65c0-6.69-11.24-6.83-11.24,0V27.21c-17.56,6.91-8.31,24.67,6.33,24.67,15.77,0,21-18.67,4.91-24.76Z"/><path class="cls-6" d="M64.12,44.45a.78.78,0,0,1-.78.79h0a.79.79,0,0,1-.79-.79V40.59a.79.79,0,0,1,.79-.79h0a.78.78,0,0,1,.78.79v3.86Z"/><path class="cls-6" d="M63.84,44.88c.2-.2.11-.62-.19-.92h0c-.31-.31-.72-.39-.92-.19l-2.56,2.55c-.2.21-.12.62.19.93h0c.31.3.72.39.92.18l2.56-2.55Z"/><path class="cls-6" d="M62.84,44.88c-.2-.2-.12-.62.19-.92h0c.3-.31.72-.39.92-.19l2.56,2.55c.2.21.11.62-.19.93h0c-.31.3-.72.39-.92.18l-2.56-2.55Z"/><path class="cls-6" d="M60.32,40.53,57.6,38a1.18,1.18,0,0,1,.69-2H68a1.18,1.18,0,0,1,.69,2l-2.72,2.58a4,4,0,0,1-5.6,0Z"/></g></g></svg>