<svg xmlns="http://www.w3.org/2000/svg" viewBox="0 0 134.46 109.25"><defs><style>.cls-1{fill:#6658a5;}.cls-2{fill:#2a3577;}.cls-3{fill:#a491c5;}.cls-4{fill:#fcef9a;}.cls-5{fill:#171b1f;}.cls-6{fill:#cfd1d0;}</style></defs><g id="Layer_2" data-name="Layer 2"><g id="Слой_5" data-name="Слой 5"><path class="cls-1" d="M64.4,64.4S49.87,62.74,47.23,48.21.33,51.19,0,68.69c0,0,11.23-13.21,20.15,0,0,0,7.26-13.21,15.19-.33,0,0,7.26-12.77,14.53-.11L64.4,64.4Z"/><path class="cls-2" d="M47.23,48.21C49.87,62.74,64.4,64.4,64.4,64.4L52,67.69A23.59,23.59,0,0,0,29.72,51.31,23.48,23.48,0,0,0,9.66,62.91C4.28,63.66,0,68.69,0,68.69c.33-17.5,44.59-35,47.23-20.48Z"/><path class="cls-1" d="M70.06,64.4s14.53-1.66,17.17-16.19,46.9,3,47.23,20.48c0,0-11.23-13.21-20.14,0,0,0-7.27-13.21-15.2-.33,0,0-7.26-12.77-14.53-.11L70.06,64.4Z"/><path class="cls-2" d="M87.23,48.21C84.59,62.74,70.06,64.4,70.06,64.4L82.5,67.69a23.23,23.23,0,0,1,42.3-4.78c5.38.75,9.66,5.78,9.66,5.78-.33-17.5-44.58-35-47.23-20.48Z"/><path class="cls-2" d="M87,75C87,61.61,78.35,50.8,67.63,50.8S48.23,61.61,48.23,75c0,9.92,4.8,18.43,11.67,22.16l6.5,11.42a1.67,1.67,0,0,0,2.76-.05l5.55-11C81.93,93.93,87,85.19,87,75Z"/><path class="cls-2" d="M74.18,15,83.33.36S96,15.42,84.39,29.11L74.18,15Z"/><path class="cls-2" d="M64.22,15.15,54.34,0S41.72,15.07,53.28,28.75l10.94-13.6Z"/><path class="cls-2" d="M85,33.48A17.87,17.87,0,1,1,67.1,15.61,17.86,17.86,0,0,1,85,33.48Z"/><path class="cls-3" d="M77.4,31.89A10.92,10.92,0,0,1,57,39.65l-.79.3a11.77,11.77,0,0,0,22-8.36l-.79.3Z"/><path class="cls-2" d="M61.88,21.52A10.27,10.27,0,1,1,51.61,11.25,10.27,10.27,0,0,1,61.88,21.52Z"/><path class="cls-4" d="M60.39,21.52a8.78,8.78,0,1,1-8.78-8.78,8.78,8.78,0,0,1,8.78,8.78Z"/><path class="cls-5" d="M55,21.52a3.4,3.4,0,1,1-3.4-3.4,3.41,3.41,0,0,1,3.4,3.4Z"/><path class="cls-6" d="M54.27,20a1.18,1.18,0,1,1-1.18-1.18A1.17,1.17,0,0,1,54.27,20Z"/><path class="cls-2" d="M81.77,21.52A10.27,10.27,0,1,1,71.5,11.25,10.27,10.27,0,0,1,81.77,21.52Z"/><path class="cls-4" d="M80.28,21.52a8.79,8.79,0,1,1-8.78-8.78,8.78,8.78,0,0,1,8.78,8.78Z"/><path class="cls-5" d="M74.9,21.52a3.41,3.41,0,1,1-3.4-3.4,3.41,3.41,0,0,1,3.4,3.4Z"/><path class="cls-6" d="M74.16,20A1.18,1.18,0,1,1,73,18.86,1.17,1.17,0,0,1,74.16,20Z"/><path class="cls-1" d="M81.65,69c0,9.64-6.28,17.45-14,17.45s-14-7.81-14-17.45,6.28-17.45,14-17.45,14,7.81,14,17.45Z"/></g></g></svg>