<svg xmlns="http://www.w3.org/2000/svg" viewBox="0 0 103.5 92.44"><defs><style>.cls-1{fill:#fab52d;}.cls-2{fill:#19171c;}.cls-3{fill:#11a7bb;}.cls-4{fill:#52c2bc;}.cls-5{fill:#4b011c;}.cls-6{fill:#bfddf4;}.cls-7{fill:#171b1f;}.cls-8{fill:#cfd1d0;}</style></defs><g id="Layer_2" data-name="Layer 2"><g id="Слой_5" data-name="Слой 5"><path class="cls-1" d="M95.52,67.18c0,14.08-13,25.26-28.64,25.26S38.24,81.35,38.24,67.18,51.13,41.92,66.88,41.92,95.52,53.16,95.52,67.18Z"/><path class="cls-2" d="M47.47,48.59V85.76a23.33,23.33,0,0,1,0-37.17Z"/><path class="cls-2" d="M72.26,42.37V92a30.68,30.68,0,0,1-5.38.46,31.86,31.86,0,0,1-7.18-.81V42.72a32.44,32.44,0,0,1,7.18-.8,31.67,31.67,0,0,1,5.38.45Z"/><path class="cls-2" d="M95.52,67.18c0,7.81-4,14.78-10.32,19.4V47.76c6.3,4.63,10.32,11.62,10.32,19.42Z"/><path class="cls-3" d="M76.25,23.81A18,18,0,0,1,71,31.4L56.55,43.79S43.88,19.81,68,0l5,5.84a18.11,18.11,0,0,1,3.28,18Z"/><path class="cls-4" d="M94,18v7.68A18.12,18.12,0,0,1,75.84,43.79H56.64S62.8,17.34,94,18Z"/><path class="cls-2" d="M18.79,40.21C16.24,36.41,13,34,9.36,33.33a4.72,4.72,0,1,0,0,2c3.87.92,6.47,4,7.79,5.94C19.72,45.11,21,51.12,20.53,57l1.95.16c.52-6.38-.86-12.71-3.69-16.93Z"/><path class="cls-2" d="M25.26,37.31a15.86,15.86,0,0,0-5.86-7.77A4.73,4.73,0,1,0,18.06,31a14.24,14.24,0,0,1,5.37,7c1.66,4.28,1.59,10.42-.17,16l1.87.59c1.91-6.11,2-12.59.13-17.33Z"/><path class="cls-1" d="M44.51,66A17.87,17.87,0,1,1,26.64,48.1,17.86,17.86,0,0,1,44.51,66Z"/><path class="cls-5" d="M37,62.22A10.93,10.93,0,0,1,16.56,70l-.78.3a11.76,11.76,0,0,0,21.95-8.36l-.78.3Z"/><path class="cls-1" d="M21.42,51.86A10.27,10.27,0,1,1,11.15,41.59,10.27,10.27,0,0,1,21.42,51.86Z"/><path class="cls-6" d="M19.94,51.86a8.79,8.79,0,1,1-8.79-8.79,8.79,8.79,0,0,1,8.79,8.79Z"/><path class="cls-7" d="M14.55,51.86a3.4,3.4,0,1,1-3.4-3.4,3.4,3.4,0,0,1,3.4,3.4Z"/><path class="cls-8" d="M13.81,50.37a1.18,1.18,0,1,1-1.17-1.17,1.17,1.17,0,0,1,1.17,1.17Z"/><path class="cls-1" d="M40.23,51.86A10.27,10.27,0,1,1,30,41.59,10.27,10.27,0,0,1,40.23,51.86Z"/><path class="cls-6" d="M38.75,51.86A8.79,8.79,0,1,1,30,43.07a8.79,8.79,0,0,1,8.79,8.79Z"/><path class="cls-7" d="M33.36,51.86a3.4,3.4,0,1,1-3.4-3.4,3.4,3.4,0,0,1,3.4,3.4Z"/><path class="cls-8" d="M32.62,50.37a1.18,1.18,0,1,1-1.17-1.17,1.17,1.17,0,0,1,1.17,1.17Z"/><polygon class="cls-2" points="94.95 63.74 103.5 68.39 94.68 70.89 94.95 63.74 94.95 63.74"/></g></g></svg>