<svg xmlns="http://www.w3.org/2000/svg" viewBox="0 0 135.01 115.13"><defs><style>.cls-1{fill:#944720;}.cls-2{fill:#52240c;}.cls-3{fill:#f99c2b;}.cls-4{fill:#b65c26;}.cls-5{fill:#f4c72c;}.cls-6{fill:#fccb6c;}.cls-7{fill:#230b0e;}.cls-8{fill:#f78d29;}.cls-9{fill:#e37b25;}.cls-10{fill:#3e262b;}.cls-11{fill:#d9a84f;}</style></defs><g id="Layer_2" data-name="Layer 2"><g id="Слой_5" data-name="Слой 5"><polygon class="cls-1" points="58.03 74.5 58.6 89.58 35.14 91.47 30.2 94.65 32.31 97.92 35.47 95.9 35.47 95.9 65.02 94.44 68.19 78.15 58.03 74.5 58.03 74.5"/><path class="cls-2" d="M30.2,94.65,25.43,99a3.81,3.81,0,0,0-.24,5.4l7.12-6.43L30.2,94.65Z"/><path class="cls-3" d="M130.57,101.41c-3,3-7.93,6.42-12.25,6.27-10-.34-9-11.06-15.2-27.25-8.53-22.2-29.27-25.34-33.06-5.29l6.54,4.43c25.14-2.32,14.53,35.56,40.52,35.56,6.13,0,13.42-3.73,16.75-9.39,3.21-5.44-1.16-6.46-3.3-4.33Z"/><path class="cls-4" d="M83.37,70.81c2.27,9-1.38,17.75-8.13,19.44S61.17,86,58.9,76.94,60.28,59.19,67,57.5s14.07,4.27,16.33,13.31Z"/><path class="cls-4" d="M78.32,71.25,51.88,65.54C51.77,65.15,57,22,57,22l9.26,2.56,12,46.71Z"/><path class="cls-5" d="M59.8,58.52H46.44c0,12.19,5.72,22.38,13.36,24.89V58.52Z"/><path class="cls-6" d="M59.8,26.62v31.9H50.43c-.81-15.13,1.57-25.64,4.25-31.9Z"/><path class="cls-3" d="M68.2,42.59A4.56,4.56,0,1,1,62,40.89a4.55,4.55,0,0,1,6.22,1.7Z"/><polygon class="cls-3" points="63.35 42.75 50.94 50.42 33.71 49.95 33.6 53.79 52.3 54.31 66.1 47.95 63.35 42.75 63.35 42.75"/><path class="cls-7" d="M45.06,47.17,41.13,47l.12-2c1.27.07,3.93,0,3.81,2.18Z"/><path class="cls-3" d="M2,86.29c14.57,3,8.48-11.51,7.87-16.53C9,62.4,12.37,55.94,17.43,55.33c2.5-.3,4.93.88,6.87,3l-2,3.69C9.75,68,24.18,81.2,11.81,88.4c-2.92,1.7-7.31,2.13-10.3.65S.47,86,2,86.29Z"/><polygon class="cls-4" points="43.38 80.97 42.16 79.86 30.58 73.2 33.33 65.21 28.51 65.11 26.71 73.57 40.84 81.7 41.67 82.52 43.38 80.97 43.38 80.97"/><polygon class="cls-4" points="33.75 83.57 32.97 82.24 24.35 72.05 29.65 65.47 25.15 63.74 20.58 71.08 31.11 83.53 31.62 84.45 33.75 83.57 33.75 83.57"/><path class="cls-1" d="M36.35,60.43a6.87,6.87,0,0,0-7.94-5.59,7.12,7.12,0,0,0,2.9,13.91,6.89,6.89,0,0,0,5-8.32Z"/><path class="cls-8" d="M20.38,38.06C22.07,55.19,21.7,49.78,22,60l10.82,2.25c.49-8.9-.55-20.07-7.17-26.07l-5.24,1.84Z"/><polygon class="cls-5" points="26.78 40.15 32.64 44.5 41.25 44.99 41.13 46.91 31.8 46.38 25.19 42.63 26.78 40.15 26.78 40.15"/><path class="cls-5" d="M28.55,40.73A2.67,2.67,0,1,1,25,39.52a2.67,2.67,0,0,1,3.58,1.21Z"/><path class="cls-3" d="M27.81,69.18l-2.9-13.91a7.12,7.12,0,0,1,2.9,13.91Z"/><path class="cls-9" d="M19.86,63.58a6.88,6.88,0,0,1,5.05-8.31l2.9,13.91a6.88,6.88,0,0,1-7.95-5.6Z"/><path class="cls-7" d="M25.74,53.79H33.6L33.71,50l-3.07-.09c-2.71,0-4.9,1.76-4.9,3.93Z"/><path class="cls-3" d="M66.78,63.85V94C59,94,52.69,87.27,52.69,78.94S59,63.85,66.78,63.85Z"/><path class="cls-9" d="M80.89,78.94C80.89,87.27,74.58,94,66.78,94V63.85c7.8,0,14.11,6.76,14.11,15.09Z"/><path class="cls-2" d="M22,90.84,16.41,94A3.83,3.83,0,0,0,15,99.28l8.35-4.82L22,90.84Z"/><polygon class="cls-3" points="53.22 76.55 50.82 91.46 27.45 88.69 21.98 90.84 23.39 94.47 26.89 93.09 26.89 93.1 56.15 97.49 62.47 82.14 53.22 76.55 53.22 76.55"/><path class="cls-3" d="M51.53,2.8c-2.73,6,6.39,15.73,10,13S58,1.69,51.53,2.8Z"/><path class="cls-6" d="M53.77,5.72c-1.5,3.28,3.52,8.65,5.49,7.14s-1.93-7.75-5.49-7.14Z"/><path class="cls-4" d="M64.35,0c4.72,4.35,0,15.47-4.36,14.14S58,.94,64.35,0Z"/><path class="cls-6" d="M63.37,3.18c2.6,2.39,0,8.51-2.4,7.78s-1.09-7.26,2.4-7.78Z"/><path class="cls-6" d="M58.41,22.36c-.4,2.17-1.88,3.72-3.28,3.45s-2.22-2.24-1.8-4.41,1.88-3.72,3.29-3.45,2.21,2.24,1.79,4.41Z"/><path class="cls-3" d="M69.83,22.26c-1.24-4.69-8.93-10.32-8.93-10.32l-5.66,1.5S49.81,17.17,50.43,22l-6.29,6.14,1.35,5.11c21.63-5.71,25.88-5.14,24.34-11Z"/><path class="cls-6" d="M49.44,30.45l-8.21,2.89A4.79,4.79,0,0,1,40,31c2.2.3,3.81-2.36,2.65-4.41,2-.54,2.74-.84,3.59-.75,2.64.25,3.34,3.3,3.2,4.58Z"/><path class="cls-7" d="M40,31c-.54-2,.16-3.76,2.64-4.41,1.16,2-.44,4.71-2.64,4.41Z"/><path class="cls-10" d="M58,21.27a1.84,1.84,0,1,1-1.84-1.84A1.84,1.84,0,0,1,58,21.27Z"/><path class="cls-11" d="M49.44,30.45a3.2,3.2,0,0,1-2.39,2.81L44.14,34a2.87,2.87,0,0,1-2.91-.69l8.21-2.89Z"/><path class="cls-3" d="M19.6,21.5c3.2,2.15,1.62,9.85-1,9.57s-2.56-8.14,1-9.57Z"/><path class="cls-6" d="M19.37,23.65c1.76,1.19.89,5.42-.56,5.27s-1.41-4.48.56-5.27Z"/><path class="cls-4" d="M12.31,24c-1,3.62,4.77,7.73,6.53,5.74S15.78,22.56,12.31,24Z"/><path class="cls-6" d="M13.78,25.33c-.57,2,2.62,4.26,3.59,3.16s-1.68-4-3.59-3.16Z"/><path class="cls-6" d="M22.15,33.42c.88,1,2.09,1.28,2.71.72s.42-1.8-.45-2.76-2.09-1.29-2.71-.72-.42,1.8.45,2.76Z"/><path class="cls-3" d="M16.4,36.87C15.58,34.14,17.71,29,17.71,29L21,28s3.87.2,5,2.81l5,1.14.9,3c-12.59,3.77-14.55,5.37-15.57,2Z"/><path class="cls-6" d="M29.13,34.72l5-1.08a2.84,2.84,0,0,0-.09-1.53,1.72,1.72,0,0,1-2.69-1.4,6.71,6.71,0,0,0-2,.73c-1.24.94-.66,2.68-.2,3.28Z"/><path class="cls-7" d="M34,32.11a1.93,1.93,0,0,0-2.67-1.4A1.71,1.71,0,0,0,34,32.11Z"/><path class="cls-10" d="M22,32.74a1.09,1.09,0,0,0,1.49.36,1.08,1.08,0,0,0-1.13-1.85A1.09,1.09,0,0,0,22,32.74Z"/><path class="cls-11" d="M29.13,34.72a1.9,1.9,0,0,0,2.07.67l1.69-.51a1.69,1.69,0,0,0,1.25-1.24l-5,1.08Z"/><path class="cls-7" d="M44.8,86l-3.12-3.43L43.38,81c1.17,1.28,3.24,3.33,1.42,5Z"/><path class="cls-7" d="M33.39,88.74l-1.77-4.29,2.13-.88c.53,1.28,2,4.2-.36,5.17Z"/></g></g></svg>