<svg xmlns="http://www.w3.org/2000/svg" viewBox="0 0 123.84 95.42"><defs><style>.cls-1{fill:#c3678e;}.cls-2{fill:#f5a6c9;}.cls-3{fill:#f37474;}.cls-4{fill:#e385a7;}.cls-5{fill:#64696d;}.cls-6{fill:#fff;}.cls-7{fill:#be2638;}</style></defs><g id="Layer_2" data-name="Layer 2"><g id="Слой_5" data-name="Слой 5"><path class="cls-1" d="M36,95.42A27.17,27.17,0,0,0,63.67,68c0-5,2-8.3,9.68-8.33h0c3.48,0,7.23,2.27,7.3,8.37a27.4,27.4,0,0,0,27.19,27.36h6a9.94,9.94,0,0,0,9.94-9.94h0a9.94,9.94,0,0,0-9.94-9.94h-6c-3.52,0-7.31-2.34-7.31-8.55A27.16,27.16,0,0,0,73.28,39.81H70.87a27.16,27.16,0,0,0-27.09,27.4c.09,11.4-14.6,10.44-14.6,1V22.64H9.3v45.1C9.3,82.66,21.11,95.17,36,95.42Z"/><path class="cls-2" d="M37.44,95.35c15,0,26.54-7.91,26.68-22.89C64,62,67.69,60.12,72.3,60c5.22-.22,7.7,1.71,8.67,13.64C82,86,93.54,95.34,107.87,95.34h8a8,8,0,0,0,8-8h-16c-8.64,0-18.21-5-19-14.36-.57-7-1.75-21.54-16.84-21-11.32.08-16,8.81-15.89,20.38-.11,10.9-8.93,15.21-19.59,14.94-19.72-.48-19.72-9.77-19.72-13.27V28.53h-8V74.12c0,15.6,12.87,21.23,28.54,21.23Z"/><polygon class="cls-3" points="29.16 61.94 8.9 61.94 8.9 35.74 29.16 35.74 29.16 61.94 29.16 61.94"/><path class="cls-4" d="M0,19.42A19.42,19.42,0,1,0,19.42,0,19.41,19.41,0,0,0,0,19.42Z"/><path class="cls-5" d="M20.17,15.05a7.6,7.6,0,1,0,7.59-7.59,7.59,7.59,0,0,0-7.59,7.59Z"/><path class="cls-6" d="M29.16,13.06a1.52,1.52,0,1,0,1.52-1.52,1.52,1.52,0,0,0-1.52,1.52Z"/><path class="cls-5" d="M2.67,15.05a7.6,7.6,0,1,0,7.59-7.59,7.59,7.59,0,0,0-7.59,7.59Z"/><path class="cls-6" d="M11.66,13.06a1.53,1.53,0,1,0,1.52-1.52,1.52,1.52,0,0,0-1.52,1.52Z"/><path class="cls-7" d="M25.69,25.53s-6.5,2.55-11.78,0c0,0,5.39,10,11.78,0Z"/><polygon class="cls-4" points="8.9 66.27 29.16 66.27 29.16 61.94 8.9 61.94 8.9 66.27 8.9 66.27"/></g></g></svg>