<svg xmlns="http://www.w3.org/2000/svg" viewBox="0 0 115.2 86.7"><defs><style>.cls-1{fill:#38ba93;}.cls-2{fill:#6a544d;}.cls-3{fill:#f59697;}.cls-4{fill:#ffc64e;}</style></defs><g id="Layer_2" data-name="Layer 2"><g id="Слой_5" data-name="Слой 5"><path class="cls-1" d="M114.09,9.64c-2.26-2.73-43.35-.79-54.26,40.79l27.32,0c16.57,0,32.45-34.14,26.94-40.74Z"/><path class="cls-2" d="M57.72,80.1h0A2.12,2.12,0,0,1,55.6,78V29a2.11,2.11,0,0,1,2.12-2.11h0A2.11,2.11,0,0,1,59.83,29V78a2.12,2.12,0,0,1-2.11,2.11Z"/><path class="cls-2" d="M56,28.6c.31-.05.61-.09.92-.11-1.43-6.6-6.17-13.92-13.46-19.74C32.25-.16,18.94-2.49,12,2.79l.91.74C19.61-1.45,32.31.79,43,9.31,50.11,15,54.7,22.17,56,28.6Z"/><path class="cls-1" d="M27.77,56.9C22.15,65.21,24.51,81.61,34,86.6c1.77.93,16.78-4.76,17.57-11.78C52.46,67,53,66.13,55.4,50.43c0,0-22.34-1.36-27.63,6.47Z"/><path class="cls-1" d="M28.08,50.38l27.32,0C44.56,9.12,3.59,6.88,1.11,9.87c-5.5,6.58,10.43,40.48,27,40.51Z"/><path class="cls-2" d="M72.11,8.75c-7.28,5.81-12,13.11-13.45,19.7.31,0,.61,0,.92.07,1.3-6.41,5.87-13.55,13-19.21C83.23.79,95.93-1.45,102.65,3.53l.92-.74c-7-5.28-20.28-2.95-31.46,6Z"/><path class="cls-3" d="M50.72,45.37c0,5.22-12.11,2.31-19.85-1.86-4.6-2.48-18-18-18-23.25s11.44-.12,18,4.32c4.33,2.94,19.85,15.56,19.85,20.79Z"/><path class="cls-1" d="M43.52,43.36c-.65.78-6.69-3.18-13.51-8.84S18.2,23.64,18.85,22.86s6.69,3.18,13.5,8.85S44.16,42.59,43.52,43.36Z"/><path class="cls-4" d="M28.36,41.14a4.48,4.48,0,1,1-4.48-4.49,4.48,4.48,0,0,1,4.48,4.49Z"/><path class="cls-3" d="M65.76,45.37c0,5.22,12.1,2.31,19.84-1.86,4.6-2.48,18-18,18-23.25s-11.44-.12-18,4.32c-4.32,2.94-19.84,15.56-19.84,20.79Z"/><path class="cls-1" d="M73,43.36c.64.78,6.69-3.18,13.5-8.84S98.27,23.64,97.63,22.86,90.94,26,84.12,31.71,72.31,42.59,73,43.36Z"/><path class="cls-4" d="M88.11,41.14a4.48,4.48,0,1,0,4.48-4.49,4.49,4.49,0,0,0-4.48,4.49Z"/><path class="cls-4" d="M53.24,51.63s-21.94,3.42-20.88,13,5,10.73,5,10.73,10,1.34,15.93-23.71Z"/><path class="cls-1" d="M87.46,56.9c5.62,8.31,3.26,24.71-6.24,29.7-1.76.93-16.77-4.76-17.57-11.78-.88-7.82-1.42-8.69-3.82-24.39,0,0,22.34-1.36,27.63,6.47Z"/><path class="cls-4" d="M62,51.63s21.94,3.42,20.88,13-5,10.73-5,10.73S67.91,76.68,62,51.63Z"/></g></g></svg>