<svg xmlns="http://www.w3.org/2000/svg" viewBox="0 0 79.47 97.97"><defs><style>.cls-1{fill:#7d421a;}.cls-2{fill:#bf7927;}.cls-3{fill:#b14425;}.cls-4{fill:#19171c;}.cls-5{fill:#fdb947;}.cls-6{fill:#fff;}</style></defs><g id="Layer_2" data-name="Layer 2"><g id="Слой_5" data-name="Слой 5"><path class="cls-1" d="M23.11,73.21A15.24,15.24,0,0,0,10.57,92.09a2.07,2.07,0,0,1-2,2.59H6.84A19.54,19.54,0,0,1,36.69,72.4c-1,1.1-1.95,2.16-2.93,3.22a15.19,15.19,0,0,0-10.65-2.41Z"/><path class="cls-1" d="M3.89,92.08H8.37a1.3,1.3,0,0,1,1.3,1.3h0a1.3,1.3,0,0,1-1.3,1.3H3.89a1.3,1.3,0,0,1-1.3-1.3h0a1.3,1.3,0,0,1,1.3-1.3Z"/><path class="cls-1" d="M3.89,87.74H8.37A1.3,1.3,0,0,1,9.67,89h0a1.3,1.3,0,0,1-1.3,1.3H3.89A1.3,1.3,0,0,1,2.59,89h0a1.3,1.3,0,0,1,1.3-1.3Z"/><path class="cls-1" d="M3.89,83.4H8.37a1.31,1.31,0,0,1,1.3,1.31h0A1.3,1.3,0,0,1,8.37,86H3.89a1.3,1.3,0,0,1-1.3-1.3h0a1.31,1.31,0,0,1,1.3-1.31Z"/><path class="cls-1" d="M56.44,73.21A15.24,15.24,0,0,1,69,92.09a2.08,2.08,0,0,0,2,2.59H72.7A19.54,19.54,0,0,0,42.85,72.4c1,1.1,2,2.16,2.93,3.22a15.21,15.21,0,0,1,10.66-2.41Z"/><path class="cls-1" d="M75.66,92.08H71.18a1.3,1.3,0,0,0-1.3,1.3h0a1.3,1.3,0,0,0,1.3,1.3h4.48a1.3,1.3,0,0,0,1.3-1.3h0a1.3,1.3,0,0,0-1.3-1.3Z"/><path class="cls-1" d="M75.66,87.74H71.18a1.3,1.3,0,0,0-1.3,1.3h0a1.3,1.3,0,0,0,1.3,1.3h4.48A1.3,1.3,0,0,0,77,89h0a1.3,1.3,0,0,0-1.3-1.3Z"/><path class="cls-1" d="M75.66,83.4H71.18a1.31,1.31,0,0,0-1.3,1.31h0a1.3,1.3,0,0,0,1.3,1.3h4.48a1.3,1.3,0,0,0,1.3-1.3h0a1.31,1.31,0,0,0-1.3-1.31Z"/><path class="cls-1" d="M25.29,53.11A15.25,15.25,0,0,0,8.08,67.86,2.07,2.07,0,0,1,5.44,69.8l-1.65-.47A19.55,19.55,0,0,1,38.59,56c-1.23.8-2.47,1.55-3.7,2.31a15.23,15.23,0,0,0-9.6-5.23Z"/><path class="cls-1" d="M1.66,66,6,67.24a1.3,1.3,0,0,1,.89,1.61h0a1.29,1.29,0,0,1-1.6.89L1,68.52a1.28,1.28,0,0,1-.9-1.6h0A1.3,1.3,0,0,1,1.66,66Z"/><path class="cls-1" d="M2.84,61.85l4.31,1.22a1.31,1.31,0,0,1,.9,1.61h0a1.3,1.3,0,0,1-1.61.89L2.13,64.35a1.31,1.31,0,0,1-.9-1.61h0a1.3,1.3,0,0,1,1.61-.89Z"/><path class="cls-1" d="M4,57.68,8.33,58.9a1.3,1.3,0,0,1,.9,1.6h0a1.3,1.3,0,0,1-1.61.9L3.31,60.18a1.3,1.3,0,0,1-.89-1.61h0A1.29,1.29,0,0,1,4,57.68Z"/><path class="cls-1" d="M54.32,53.06A15.23,15.23,0,0,1,71.38,68a2.08,2.08,0,0,0,2.63,2l1.65-.45A19.54,19.54,0,0,0,41,55.84c1.22.81,2.46,1.57,3.68,2.34a15.19,15.19,0,0,1,9.64-5.12Z"/><path class="cls-1" d="M77.83,66.2l-4.32,1.18a1.3,1.3,0,0,0-.92,1.6h0a1.31,1.31,0,0,0,1.6.91l4.32-1.18a1.29,1.29,0,0,0,.92-1.59h0a1.31,1.31,0,0,0-1.6-.92Z"/><path class="cls-1" d="M76.69,62,72.37,63.2a1.3,1.3,0,0,0-.92,1.6h0a1.31,1.31,0,0,0,1.6.91l4.32-1.18a1.3,1.3,0,0,0,.92-1.6h0a1.31,1.31,0,0,0-1.6-.91Z"/><path class="cls-1" d="M75.55,57.84,71.23,59a1.31,1.31,0,0,0-.92,1.6h0a1.3,1.3,0,0,0,1.6.91l4.32-1.17a1.3,1.3,0,0,0,.92-1.6h0a1.31,1.31,0,0,0-1.6-.91Z"/><path class="cls-1" d="M23.11,42.82A15.23,15.23,0,0,1,10.57,24a2.07,2.07,0,0,0-2-2.59H6.84A19.54,19.54,0,0,0,36.69,43.64c-1-1.1-1.95-2.16-2.93-3.23a15.14,15.14,0,0,1-10.65,2.41Z"/><path class="cls-1" d="M3.89,24H8.37a1.3,1.3,0,0,0,1.3-1.3h0a1.3,1.3,0,0,0-1.3-1.3H3.89a1.3,1.3,0,0,0-1.3,1.3h0A1.3,1.3,0,0,0,3.89,24Z"/><path class="cls-1" d="M3.89,28.3H8.37A1.3,1.3,0,0,0,9.67,27h0a1.3,1.3,0,0,0-1.3-1.3H3.89A1.31,1.31,0,0,0,2.59,27h0a1.3,1.3,0,0,0,1.3,1.3Z"/><path class="cls-1" d="M3.89,32.63H8.37a1.3,1.3,0,0,0,1.3-1.3h0A1.3,1.3,0,0,0,8.37,30H3.89a1.3,1.3,0,0,0-1.3,1.3h0a1.3,1.3,0,0,0,1.3,1.3Z"/><path class="cls-1" d="M56.44,42.82A15.23,15.23,0,0,0,69,24a2.07,2.07,0,0,1,2-2.59H72.7A19.54,19.54,0,0,1,42.85,43.64c1-1.1,2-2.16,2.93-3.23a15.16,15.16,0,0,0,10.66,2.41Z"/><path class="cls-1" d="M75.66,24H71.18a1.3,1.3,0,0,1-1.3-1.3h0a1.3,1.3,0,0,1,1.3-1.3h4.48a1.3,1.3,0,0,1,1.3,1.3h0a1.3,1.3,0,0,1-1.3,1.3Z"/><path class="cls-1" d="M75.66,28.3H71.18A1.31,1.31,0,0,1,69.88,27h0a1.3,1.3,0,0,1,1.3-1.3h4.48A1.3,1.3,0,0,1,77,27h0a1.31,1.31,0,0,1-1.3,1.31Z"/><path class="cls-1" d="M75.66,32.63H71.18a1.3,1.3,0,0,1-1.3-1.3h0a1.3,1.3,0,0,1,1.3-1.3h4.48a1.3,1.3,0,0,1,1.3,1.3h0a1.3,1.3,0,0,1-1.3,1.3Z"/><path class="cls-2" d="M60.44,49.69H18.33V40.24a19.2,19.2,0,0,1,19.2-19.19h3.71a19.19,19.19,0,0,1,19.2,19.19v9.45Z"/><path class="cls-3" d="M60.44,49.69H18.33V74C18,90.38,33.73,98,39.58,98c6.54,0,20.86-7.59,20.86-24V49.69Z"/><path class="cls-4" d="M46.18,12.22c3.17-4.64,7.76-8.32,12-9.6a13.72,13.72,0,0,1,8.44-.11c0,.05.38-2,.31-1.87a15.28,15.28,0,0,0-9.3.18c-4.65,1.43-9.49,5.29-12.95,10.34l1.55,1.06Z"/><path class="cls-4" d="M33.6,12.22c-3.18-4.64-7.76-8.32-12-9.6a13.69,13.69,0,0,0-8.43-.11c0,.05-.38-2-.32-1.87a15.28,15.28,0,0,1,9.3.18c4.65,1.43,9.5,5.29,13,10.34L33.6,12.22Z"/><path class="cls-3" d="M39.58,29.28A12.08,12.08,0,1,0,27.51,17.21,12.08,12.08,0,0,0,39.58,29.28Z"/><path class="cls-4" d="M51.47,15.09c-2.35-10.57-12.08-10-12.08-10,.46,12.59,12.08,10,12.08,10Z"/><path class="cls-4" d="M27.7,15.09c2.35-10.57,12.08-10,12.08-10-.46,12.59-12.08,10-12.08,10Z"/><path class="cls-5" d="M37.21,39a6.68,6.68,0,1,1-6.67-6.67A6.68,6.68,0,0,1,37.21,39Z"/><path class="cls-5" d="M55.79,39a6.68,6.68,0,1,1-6.67-6.67A6.67,6.67,0,0,1,55.79,39Z"/><polygon class="cls-4" points="40.05 97.97 39.12 97.97 39.12 49.69 40.05 49.69 40.05 97.97 40.05 97.97"/><path class="cls-6" d="M34.05,10.24A1.24,1.24,0,1,1,32.82,9a1.23,1.23,0,0,1,1.23,1.23Z"/><path class="cls-6" d="M48,10.24A1.24,1.24,0,1,1,46.75,9,1.23,1.23,0,0,1,48,10.24Z"/></g></g></svg>